# This file uses centimeters as units for non-parametric coordinates.

mtllib Building_One.mtl
g default
v -2.637075 -0.000000 -2.709121
v -7.578074 -0.000000 -2.709121
v -7.578074 -0.000000 1.956418
v -2.637075 -0.000000 1.956418
v -2.637075 21.548817 -2.709121
v -7.578074 21.548817 -2.709121
v -7.578074 21.548817 1.956418
v -2.637075 21.548817 1.956418
v -2.760601 21.548817 -2.592482
v -7.454549 21.548817 -2.592482
v -7.454549 21.548817 1.839779
v -2.760601 21.548817 1.839779
v -2.760601 21.518818 -2.592482
v -7.454549 21.518818 -2.592482
v -7.454549 21.518818 1.839779
v -2.760601 21.518818 1.839779
v -7.761598 -0.000000 2.073056
v -7.394549 -0.000000 2.073056
v -7.761598 21.125130 2.073056
v -7.394549 21.125130 2.073056
v -7.761598 21.125130 -2.825759
v -7.394549 21.125130 -2.825759
v -7.761598 -0.000000 -2.825759
v -7.394549 -0.000000 -2.825759
v -6.773398 -0.000000 2.073056
v -6.406350 -0.000000 2.073056
v -6.406350 21.125130 2.073056
v -6.773398 21.125130 2.073056
v -6.406350 21.125130 -2.825759
v -6.773398 21.125130 -2.825759
v -6.406350 -0.000000 -2.825759
v -6.773398 -0.000000 -2.825759
v -5.785198 -0.000000 2.073056
v -5.418150 -0.000000 2.073056
v -5.418150 21.125130 2.073056
v -5.785198 21.125130 2.073056
v -5.418150 21.125130 -2.825759
v -5.785198 21.125130 -2.825759
v -5.418150 -0.000000 -2.825759
v -5.785198 -0.000000 -2.825759
v -4.796999 -0.000000 2.073056
v -4.429951 -0.000000 2.073056
v -4.429951 21.125130 2.073056
v -4.796999 21.125130 2.073056
v -4.429951 21.125130 -2.825759
v -4.796999 21.125130 -2.825759
v -4.429951 -0.000000 -2.825759
v -4.796999 -0.000000 -2.825759
v -3.808799 -0.000000 2.073056
v -3.441751 -0.000000 2.073056
v -3.441751 21.125130 2.073056
v -3.808799 21.125130 2.073056
v -3.441751 21.125130 -2.825759
v -3.808799 21.125130 -2.825759
v -3.441751 -0.000000 -2.825759
v -3.808799 -0.000000 -2.825759
v -2.820600 -0.000000 2.073056
v -2.453551 -0.000000 2.073056
v -2.453551 21.125130 2.073056
v -2.820600 21.125130 2.073056
v -2.453551 21.125130 -2.825759
v -2.820600 21.125130 -2.825759
v -2.453551 -0.000000 -2.825759
v -2.820600 -0.000000 -2.825759
v -6.991316 21.518818 1.597699
v -3.004668 21.518818 1.597699
v -6.991316 21.814341 1.597699
v -3.004668 21.814341 1.597699
v -6.991316 21.814341 -1.958084
v -3.004668 21.814341 -1.958084
v -6.991316 21.518818 -1.958084
v -3.004668 21.518818 -1.958084
vt 4.000000 0.000000
vt 0.000000 0.000000
vt 0.000000 0.000000
vt 4.000000 0.000000
vt 5.000000 0.000000
vt 5.000000 5.000000
vt 0.000000 5.000000
vt 0.000000 0.000000
vt 0.000000 0.000000
vt 5.000000 0.000000
vt 5.000000 22.000000
vt 0.000000 22.000000
vt 0.000000 0.000000
vt 5.000000 0.000000
vt 5.000000 22.000000
vt 0.000000 22.000000
vt 0.000000 0.000000
vt 5.000000 0.000000
vt 5.000000 22.000000
vt 0.000000 22.000000
vt 0.000000 0.000000
vt 5.000000 0.000000
vt 5.000000 22.000000
vt 0.000000 22.000000
vt 5.000000 0.000000
vt 0.000000 0.000000
vt 0.000000 0.000000
vt 5.000000 0.000000
vt 4.000000 0.000000
vt 0.000000 0.000000
vt 0.000000 0.000000
vt 4.000000 0.000000
vt 5.000000 0.000000
vt 0.000000 0.000000
vt 0.000000 0.000000
vt 5.000000 0.000000
vn 0.000000 1.000000 0.000000
vn 0.000000 1.000000 0.000000
vn 0.000000 1.000000 0.000000
vn 0.000000 1.000000 0.000000
vn 0.000000 -1.000000 0.000000
vn 0.000000 -1.000000 0.000000
vn 0.000000 -1.000000 0.000000
vn 0.000000 -1.000000 0.000000
vn 0.000000 0.000000 -1.000000
vn 0.000000 0.000000 -1.000000
vn 0.000000 0.000000 -1.000000
vn 0.000000 0.000000 -1.000000
vn -1.000000 0.000000 0.000000
vn -1.000000 0.000000 0.000000
vn -1.000000 0.000000 0.000000
vn -1.000000 0.000000 0.000000
vn 0.000000 0.000000 1.000000
vn 0.000000 0.000000 1.000000
vn 0.000000 0.000000 1.000000
vn 0.000000 0.000000 1.000000
vn 1.000000 0.000000 0.000000
vn 1.000000 0.000000 0.000000
vn 1.000000 0.000000 0.000000
vn 1.000000 0.000000 0.000000
vn 0.000000 1.000000 -0.000001
vn 0.000000 1.000000 -0.000001
vn 0.000000 1.000000 -0.000001
vn 0.000000 1.000000 -0.000001
vn 0.000000 1.000000 -0.000001
vn 0.000000 1.000000 -0.000001
vn 0.000000 1.000000 -0.000001
vn 0.000000 1.000000 -0.000001
vn 0.000000 0.000000 1.000000
vn 0.000000 0.000000 1.000000
vn 0.000000 0.000000 1.000000
vn 0.000000 0.000000 1.000000
vn 1.000000 0.000000 0.000000
vn 1.000000 0.000000 0.000000
vn 1.000000 0.000000 0.000000
vn 1.000000 0.000000 0.000000
vn 0.000000 0.000000 -1.000000
vn 0.000000 0.000000 -1.000000
vn 0.000000 0.000000 -1.000000
vn 0.000000 0.000000 -1.000000
vn -1.000000 0.000000 0.000000
vn -1.000000 0.000000 0.000000
vn -1.000000 0.000000 0.000000
vn -1.000000 0.000000 0.000000
vn 0.000000 0.000000 1.000000
vn 0.000000 0.000000 1.000000
vn 0.000000 0.000000 1.000000
vn 0.000000 0.000000 1.000000
vn 0.000000 1.000000 0.000000
vn 0.000000 1.000000 0.000000
vn 0.000000 1.000000 0.000000
vn 0.000000 1.000000 0.000000
vn 0.000000 0.000000 -1.000000
vn 0.000000 0.000000 -1.000000
vn 0.000000 0.000000 -1.000000
vn 0.000000 0.000000 -1.000000
vn 1.000000 0.000000 0.000000
vn 1.000000 0.000000 0.000000
vn 1.000000 0.000000 0.000000
vn 1.000000 0.000000 0.000000
vn -1.000000 0.000000 0.000000
vn -1.000000 0.000000 0.000000
vn -1.000000 0.000000 0.000000
vn -1.000000 0.000000 0.000000
vn 0.000000 0.000000 1.000000
vn 0.000000 0.000000 1.000000
vn 0.000000 0.000000 1.000000
vn 0.000000 0.000000 1.000000
vn 0.000000 1.000000 0.000000
vn 0.000000 1.000000 0.000000
vn 0.000000 1.000000 0.000000
vn 0.000000 1.000000 0.000000
vn 0.000000 0.000000 -1.000000
vn 0.000000 0.000000 -1.000000
vn 0.000000 0.000000 -1.000000
vn 0.000000 0.000000 -1.000000
vn 1.000000 0.000000 0.000000
vn 1.000000 0.000000 0.000000
vn 1.000000 0.000000 0.000000
vn 1.000000 0.000000 0.000000
vn -1.000000 0.000000 0.000000
vn -1.000000 0.000000 0.000000
vn -1.000000 0.000000 0.000000
vn -1.000000 0.000000 0.000000
vn 0.000000 0.000000 1.000000
vn 0.000000 0.000000 1.000000
vn 0.000000 0.000000 1.000000
vn 0.000000 0.000000 1.000000
vn 0.000000 1.000000 0.000000
vn 0.000000 1.000000 0.000000
vn 0.000000 1.000000 0.000000
vn 0.000000 1.000000 0.000000
vn 0.000000 0.000000 -1.000000
vn 0.000000 0.000000 -1.000000
vn 0.000000 0.000000 -1.000000
vn 0.000000 0.000000 -1.000000
vn 1.000000 0.000000 0.000000
vn 1.000000 0.000000 0.000000
vn 1.000000 0.000000 0.000000
vn 1.000000 0.000000 0.000000
vn -1.000000 0.000000 0.000000
vn -1.000000 0.000000 0.000000
vn -1.000000 0.000000 0.000000
vn -1.000000 0.000000 0.000000
vn 0.000000 0.000000 1.000000
vn 0.000000 0.000000 1.000000
vn 0.000000 0.000000 1.000000
vn 0.000000 0.000000 1.000000
vn 0.000000 1.000000 0.000000
vn 0.000000 1.000000 0.000000
vn 0.000000 1.000000 0.000000
vn 0.000000 1.000000 0.000000
vn 0.000000 0.000000 -1.000000
vn 0.000000 0.000000 -1.000000
vn 0.000000 0.000000 -1.000000
vn 0.000000 0.000000 -1.000000
vn 1.000000 0.000000 0.000000
vn 1.000000 0.000000 0.000000
vn 1.000000 0.000000 0.000000
vn 1.000000 0.000000 0.000000
vn -1.000000 0.000000 0.000000
vn -1.000000 0.000000 0.000000
vn -1.000000 0.000000 0.000000
vn -1.000000 0.000000 0.000000
vn 0.000000 0.000000 1.000000
vn 0.000000 0.000000 1.000000
vn 0.000000 0.000000 1.000000
vn 0.000000 0.000000 1.000000
vn 0.000000 1.000000 0.000000
vn 0.000000 1.000000 0.000000
vn 0.000000 1.000000 0.000000
vn 0.000000 1.000000 0.000000
vn 0.000000 0.000000 -1.000000
vn 0.000000 0.000000 -1.000000
vn 0.000000 0.000000 -1.000000
vn 0.000000 0.000000 -1.000000
vn 1.000000 0.000000 0.000000
vn 1.000000 0.000000 0.000000
vn 1.000000 0.000000 0.000000
vn 1.000000 0.000000 0.000000
vn -1.000000 0.000000 0.000000
vn -1.000000 0.000000 0.000000
vn -1.000000 0.000000 0.000000
vn -1.000000 0.000000 0.000000
vn 0.000000 0.000000 1.000000
vn 0.000000 0.000000 1.000000
vn 0.000000 0.000000 1.000000
vn 0.000000 0.000000 1.000000
vn 0.000000 1.000000 0.000000
vn 0.000000 1.000000 0.000000
vn 0.000000 1.000000 0.000000
vn 0.000000 1.000000 0.000000
vn 0.000000 0.000000 -1.000000
vn 0.000000 0.000000 -1.000000
vn 0.000000 0.000000 -1.000000
vn 0.000000 0.000000 -1.000000
vn 1.000000 0.000000 0.000000
vn 1.000000 0.000000 0.000000
vn 1.000000 0.000000 0.000000
vn 1.000000 0.000000 0.000000
vn -1.000000 0.000000 0.000000
vn -1.000000 0.000000 0.000000
vn -1.000000 0.000000 0.000000
vn -1.000000 0.000000 0.000000
vn 0.000000 0.000000 1.000000
vn 0.000000 0.000000 1.000000
vn 0.000000 0.000000 1.000000
vn 0.000000 0.000000 1.000000
vn 0.000000 1.000000 0.000000
vn 0.000000 1.000000 0.000000
vn 0.000000 1.000000 0.000000
vn 0.000000 1.000000 0.000000
vn 0.000000 0.000000 -1.000000
vn 0.000000 0.000000 -1.000000
vn 0.000000 0.000000 -1.000000
vn 0.000000 0.000000 -1.000000
vn 1.000000 0.000000 0.000000
vn 1.000000 0.000000 0.000000
vn 1.000000 0.000000 0.000000
vn 1.000000 0.000000 0.000000
vn -1.000000 0.000000 0.000000
vn -1.000000 0.000000 0.000000
vn -1.000000 0.000000 0.000000
vn -1.000000 0.000000 0.000000
s off
g grp_building_geo10 building_grp
usemtl initialShadingGroup
f 13//1 14//2 15//3 16//4
f 1/5/5 4/6/6 3/7/7 2/8/8
f 1/9/9 2/10/10 6/11/11 5/12/12
f 2/13/13 3/14/14 7/15/15 6/16/16
f 3/17/17 4/18/18 8/19/19 7/20/20
f 4/21/21 1/22/22 5/23/23 8/24/24
s 1
f 5//25 6//26 10//27 9//28
f 6//26 7//29 11//30 10//27
f 7//29 8//31 12//32 11//30
f 8//31 5//25 9//28 12//32
s off
f 9/33/33 10/34/34 14/35/35 13/36/36
f 10/32/37 11/31/38 15/30/39 14/29/40
f 11/28/41 12/27/42 16/26/43 15/25/44
f 12/4/45 9/3/46 13/2/47 16/1/48
f 17//49 18//50 20//51 19//52
f 19//53 20//54 22//55 21//56
f 21//57 22//58 24//59 23//60
f 18//61 24//62 22//63 20//64
f 23//65 17//66 19//67 21//68
f 25//69 26//70 27//71 28//72
f 28//73 27//74 29//75 30//76
f 30//77 29//78 31//79 32//80
f 26//81 31//82 29//83 27//84
f 32//85 25//86 28//87 30//88
f 33//89 34//90 35//91 36//92
f 36//93 35//94 37//95 38//96
f 38//97 37//98 39//99 40//100
f 34//101 39//102 37//103 35//104
f 40//105 33//106 36//107 38//108
f 41//109 42//110 43//111 44//112
f 44//113 43//114 45//115 46//116
f 46//117 45//118 47//119 48//120
f 42//121 47//122 45//123 43//124
f 48//125 41//126 44//127 46//128
f 49//129 50//130 51//131 52//132
f 52//133 51//134 53//135 54//136
f 54//137 53//138 55//139 56//140
f 50//141 55//142 53//143 51//144
f 56//145 49//146 52//147 54//148
f 57//149 58//150 59//151 60//152
f 60//153 59//154 61//155 62//156
f 62//157 61//158 63//159 64//160
f 58//161 63//162 61//163 59//164
f 64//165 57//166 60//167 62//168
f 65//169 66//170 68//171 67//172
f 67//173 68//174 70//175 69//176
f 69//177 70//178 72//179 71//180
f 66//181 72//182 70//183 68//184
f 71//185 65//186 67//187 69//188
