# This file uses centimeters as units for non-parametric coordinates.

mtllib Building_Four.mtl
g default
v 14.955985 -0.000000 9.003457
v 10.712342 -0.000000 9.003457
v 10.712342 -0.000000 13.929314
v 14.955985 -0.000000 13.929314
v 14.955985 16.691267 9.003457
v 10.712342 16.691267 9.003457
v 10.712342 16.691267 13.929314
v 14.955985 16.691267 13.929314
v 14.849895 16.691267 9.126603
v 10.818433 16.691267 9.126603
v 10.818433 16.691267 13.806168
v 14.849895 16.691267 13.806168
v 14.849895 16.661268 9.126603
v 10.818433 16.661268 9.126603
v 10.818433 16.661268 13.806168
v 14.849895 16.661268 13.806168
v 11.917306 16.661268 9.126603
v 11.917306 16.661268 13.806168
v 14.849895 17.063387 9.126603
v 11.917306 17.063387 9.126603
v 11.917306 17.063387 13.806168
v 14.849895 17.063387 13.806168
v 15.062076 -0.000000 14.309372
v 15.062076 -0.000000 13.549255
v 15.062076 16.752842 14.309372
v 15.062076 16.752842 13.549255
v 10.606252 16.752842 14.309372
v 10.606252 16.752842 13.549255
v 10.606252 -0.000000 14.309372
v 10.606252 -0.000000 13.549255
v 15.062076 -0.000000 12.667419
v 15.062076 -0.000000 11.907303
v 15.062076 16.752842 11.907303
v 15.062076 16.752842 12.667419
v 10.606252 16.752842 11.907303
v 10.606252 16.752842 12.667419
v 10.606252 -0.000000 11.907303
v 10.606252 -0.000000 12.667419
v 15.062076 -0.000000 11.025467
v 15.062076 -0.000000 10.265351
v 15.062076 16.752842 10.265351
v 15.062076 16.752842 11.025467
v 10.606252 16.752842 10.265351
v 10.606252 16.752842 11.025467
v 10.606252 -0.000000 10.265351
v 10.606252 -0.000000 11.025467
v 15.062076 -0.000000 9.383515
v 15.062076 -0.000000 8.623399
v 15.062076 16.752842 8.623399
v 15.062076 16.752842 9.383515
v 10.606252 16.752842 8.623399
v 10.606252 16.752842 9.383515
v 10.606252 -0.000000 8.623399
v 10.606252 -0.000000 9.383515
v 12.566129 16.661268 13.074683
v 13.439374 16.661268 13.074683
v 12.566129 16.873039 13.074683
v 13.439374 16.873039 13.074683
v 12.566129 16.873039 12.341693
v 13.439374 16.873039 12.341693
v 12.566129 16.661268 12.341693
v 13.439374 16.661268 12.341693
v 13.970017 16.661268 13.074683
v 14.843263 16.661268 13.074683
v 14.843263 16.873039 13.074683
v 13.970017 16.873039 13.074683
v 14.843263 16.873039 12.341693
v 13.970017 16.873039 12.341693
v 14.843263 16.661268 12.341693
v 13.970017 16.661268 12.341693
v 11.162240 16.661268 13.074683
v 12.035485 16.661268 13.074683
v 12.035485 16.873039 13.074683
v 11.162240 16.873039 13.074683
v 12.035485 16.873039 12.341693
v 11.162240 16.873039 12.341693
v 12.035485 16.661268 12.341693
v 11.162240 16.661268 12.341693
v 12.953961 16.661268 12.953958
v 13.690831 16.661268 12.953958
v 14.427700 16.661268 12.953958
v 12.953961 16.884541 12.953958
v 13.690831 16.884541 12.953958
v 14.427700 16.884541 12.953958
v 12.953961 16.884541 10.721300
v 13.690831 16.884541 10.721300
v 14.427700 16.884541 10.721300
v 12.953961 16.884541 10.187216
v 13.690831 16.884541 10.187216
v 14.427700 16.884541 10.187216
v 12.953961 16.661268 10.187216
v 13.690831 16.661268 10.187216
v 14.427700 16.661268 10.187216
v 12.953961 16.661268 10.721300
v 14.427700 16.661268 10.721300
v 11.202895 16.661268 10.721300
v 11.202895 16.661268 12.953958
v 11.202895 16.884541 12.953958
v 11.202895 16.884541 10.721300
v 12.649498 17.063387 11.923596
v 14.734453 17.063387 11.923596
v 12.649498 17.296986 11.923596
v 14.734453 17.296986 11.923596
v 12.649498 17.296986 9.970227
v 14.734453 17.296986 9.970227
v 12.649498 17.063387 9.970227
v 14.734453 17.063387 9.970227
v 14.702548 17.063387 10.975661
v 14.702548 17.063387 10.360579
v 14.702548 17.063387 9.745495
v 14.702548 17.310781 10.975661
v 14.702548 17.310781 10.360579
v 14.702548 17.310781 9.745495
v 12.623620 17.310781 10.975661
v 12.623620 17.310781 10.360579
v 12.623620 17.310781 9.745495
v 12.182258 17.310781 10.975661
v 12.182258 17.310781 10.360579
v 12.182258 17.310781 9.745495
v 12.182258 17.063387 10.975661
v 12.182258 17.063387 10.360579
v 12.182258 17.063387 9.745495
v 12.623620 17.063387 10.975661
v 12.623620 17.063387 9.745495
v 12.623620 17.063387 11.639320
v 14.702548 17.063387 11.639320
v 14.702548 17.310781 11.639320
v 12.623620 17.310781 11.639320
vt 0.000000 0.500000
vt 5.000000 0.500000
vt 5.000000 0.000000
vt 0.000000 0.000000
vt 4.000000 0.000000
vt 4.000000 5.000000
vt 0.000000 5.000000
vt 0.000000 0.000000
vt 0.000000 0.000000
vt 4.000000 0.000000
vt 4.000000 17.000000
vt 0.000000 17.000000
vt 0.000000 0.000000
vt 5.000000 0.000000
vt 5.000000 17.000000
vt 0.000000 17.000000
vt 0.000000 0.000000
vt 4.000000 0.000000
vt 4.000000 17.000000
vt 0.000000 17.000000
vt 0.000000 0.000000
vt 5.000000 0.000000
vt 5.000000 17.000000
vt 0.000000 17.000000
vt 0.000000 0.500000
vt 3.000000 0.500000
vt 3.000000 0.000000
vt 0.000000 0.000000
vt 0.000000 0.500000
vt 5.000000 0.500000
vt 5.000000 0.000000
vt 0.000000 0.000000
vt 4.000000 0.000000
vt 0.000000 0.000000
vt 0.000000 0.000000
vt 1.000000 0.000000
vt 4.000000 0.000000
vt 5.000000 0.000000
vt 0.000000 0.000000
vt 0.000000 0.000000
vt 5.000000 0.000000
vt 4.000000 0.000000
vt 0.000000 0.000000
vt 0.000000 0.000000
vt 3.000000 0.000000
vt 4.000000 0.000000
vt 5.000000 0.000000
vt 0.000000 0.000000
vt 0.000000 0.000000
vt 5.000000 0.000000
vt 0.000000 1.000000
vt 3.000000 1.000000
vt 3.000000 0.000000
vt 0.000000 0.000000
vn 0.000000 1.000000 0.000000
vn 0.000000 1.000000 0.000000
vn 0.000000 1.000000 0.000000
vn 0.000000 1.000000 0.000000
vn 0.000000 -1.000000 0.000000
vn 0.000000 -1.000000 0.000000
vn 0.000000 -1.000000 0.000000
vn 0.000000 -1.000000 0.000000
vn 0.000000 0.000000 -1.000000
vn 0.000000 0.000000 -1.000000
vn 0.000000 0.000000 -1.000000
vn 0.000000 0.000000 -1.000000
vn -1.000000 0.000000 0.000000
vn -1.000000 0.000000 0.000000
vn -1.000000 0.000000 0.000000
vn -1.000000 0.000000 0.000000
vn 0.000000 0.000000 1.000000
vn 0.000000 0.000000 1.000000
vn 0.000000 0.000000 1.000000
vn 0.000000 0.000000 1.000000
vn 1.000000 0.000000 0.000000
vn 1.000000 0.000000 0.000000
vn 1.000000 0.000000 0.000000
vn 1.000000 0.000000 0.000000
vn 0.000000 1.000000 -0.000003
vn 0.000000 1.000000 -0.000003
vn 0.000000 1.000000 -0.000003
vn 0.000000 1.000000 -0.000003
vn 0.000000 1.000000 0.000003
vn 0.000000 1.000000 0.000003
vn 0.000000 1.000000 0.000003
vn 0.000000 1.000000 0.000003
vn 0.000000 0.000000 1.000000
vn 0.000000 0.000000 1.000000
vn 0.000000 0.000000 1.000000
vn 0.000000 0.000000 1.000000
vn 0.000000 0.000000 1.000000
vn 1.000000 0.000000 0.000000
vn 1.000000 0.000000 0.000000
vn 1.000000 0.000000 0.000000
vn 1.000000 0.000000 0.000000
vn 0.000000 0.000000 -1.000000
vn 0.000000 0.000000 -1.000000
vn 0.000000 0.000000 -1.000000
vn 0.000000 0.000000 -1.000000
vn 0.000000 0.000000 -1.000000
vn -1.000000 0.000000 0.000000
vn -1.000000 0.000000 0.000000
vn -1.000000 0.000000 0.000000
vn -1.000000 0.000000 0.000000
vn 0.000000 1.000000 0.000000
vn 0.000000 1.000000 0.000000
vn 0.000000 1.000000 0.000000
vn 0.000000 1.000000 0.000000
vn 0.000000 0.000000 -1.000000
vn 0.000000 0.000000 -1.000000
vn 0.000000 0.000000 -1.000000
vn 0.000000 0.000000 -1.000000
vn -1.000000 0.000000 0.000000
vn -1.000000 0.000000 0.000000
vn -1.000000 0.000000 0.000000
vn -1.000000 0.000000 0.000000
vn 0.000000 0.000000 1.000000
vn 0.000000 0.000000 1.000000
vn 0.000000 0.000000 1.000000
vn 0.000000 0.000000 1.000000
vn 1.000000 0.000000 0.000000
vn 1.000000 0.000000 0.000000
vn 1.000000 0.000000 0.000000
vn 1.000000 0.000000 0.000000
vn 1.000000 0.000000 0.000000
vn 1.000000 0.000000 0.000000
vn 1.000000 0.000000 0.000000
vn 1.000000 0.000000 0.000000
vn 0.000000 1.000000 0.000000
vn 0.000000 1.000000 0.000000
vn 0.000000 1.000000 0.000000
vn 0.000000 1.000000 0.000000
vn -1.000000 0.000000 0.000000
vn -1.000000 0.000000 0.000000
vn -1.000000 0.000000 0.000000
vn -1.000000 0.000000 0.000000
vn 0.000000 0.000000 -1.000000
vn 0.000000 0.000000 -1.000000
vn 0.000000 0.000000 -1.000000
vn 0.000000 0.000000 -1.000000
vn 0.000000 0.000000 1.000000
vn 0.000000 0.000000 1.000000
vn 0.000000 0.000000 1.000000
vn 0.000000 0.000000 1.000000
vn 1.000000 0.000000 0.000000
vn 1.000000 0.000000 0.000000
vn 1.000000 0.000000 0.000000
vn 1.000000 0.000000 0.000000
vn 0.000000 1.000000 0.000000
vn 0.000000 1.000000 0.000000
vn 0.000000 1.000000 0.000000
vn 0.000000 1.000000 0.000000
vn -1.000000 0.000000 0.000000
vn -1.000000 0.000000 0.000000
vn -1.000000 0.000000 0.000000
vn -1.000000 0.000000 0.000000
vn 0.000000 0.000000 -1.000000
vn 0.000000 0.000000 -1.000000
vn 0.000000 0.000000 -1.000000
vn 0.000000 0.000000 -1.000000
vn 0.000000 0.000000 1.000000
vn 0.000000 0.000000 1.000000
vn 0.000000 0.000000 1.000000
vn 0.000000 0.000000 1.000000
vn 1.000000 0.000000 0.000000
vn 1.000000 0.000000 0.000000
vn 1.000000 0.000000 0.000000
vn 1.000000 0.000000 0.000000
vn 0.000000 1.000000 0.000000
vn 0.000000 1.000000 0.000000
vn 0.000000 1.000000 0.000000
vn 0.000000 1.000000 0.000000
vn -1.000000 0.000000 0.000000
vn -1.000000 0.000000 0.000000
vn -1.000000 0.000000 0.000000
vn -1.000000 0.000000 0.000000
vn 0.000000 0.000000 -1.000000
vn 0.000000 0.000000 -1.000000
vn 0.000000 0.000000 -1.000000
vn 0.000000 0.000000 -1.000000
vn 0.000000 0.000000 1.000000
vn 0.000000 0.000000 1.000000
vn 0.000000 0.000000 1.000000
vn 0.000000 0.000000 1.000000
vn 1.000000 0.000000 0.000000
vn 1.000000 0.000000 0.000000
vn 1.000000 0.000000 0.000000
vn 1.000000 0.000000 0.000000
vn 0.000000 1.000000 0.000000
vn 0.000000 1.000000 0.000000
vn 0.000000 1.000000 0.000000
vn 0.000000 1.000000 0.000000
vn -1.000000 0.000000 0.000000
vn -1.000000 0.000000 0.000000
vn -1.000000 0.000000 0.000000
vn -1.000000 0.000000 0.000000
vn 0.000000 0.000000 -1.000000
vn 0.000000 0.000000 -1.000000
vn 0.000000 0.000000 -1.000000
vn 0.000000 0.000000 -1.000000
vn 0.000000 0.000000 1.000000
vn 0.000000 0.000000 1.000000
vn 0.000000 0.000000 1.000000
vn 0.000000 0.000000 1.000000
vn 0.000000 0.000000 1.000000
vn 0.000000 0.000000 1.000000
vn 0.000000 0.000000 1.000000
vn 0.000000 0.000000 1.000000
vn 0.000000 1.000000 0.000000
vn 0.000000 1.000000 0.000000
vn 0.000000 1.000000 0.000000
vn 0.000000 1.000000 0.000000
vn 0.000000 0.000000 -1.000000
vn 0.000000 0.000000 -1.000000
vn 0.000000 0.000000 -1.000000
vn 0.000000 0.000000 -1.000000
vn 1.000000 0.000000 0.000000
vn 1.000000 0.000000 0.000000
vn 1.000000 0.000000 0.000000
vn 1.000000 0.000000 0.000000
vn -1.000000 0.000000 0.000000
vn -1.000000 0.000000 0.000000
vn -1.000000 0.000000 0.000000
vn -1.000000 0.000000 0.000000
vn 0.000000 0.000000 1.000000
vn 0.000000 0.000000 1.000000
vn 0.000000 0.000000 1.000000
vn 0.000000 0.000000 1.000000
vn 0.000000 1.000000 0.000000
vn 0.000000 1.000000 0.000000
vn 0.000000 1.000000 0.000000
vn 0.000000 1.000000 0.000000
vn 0.000000 0.000000 -1.000000
vn 0.000000 0.000000 -1.000000
vn 0.000000 0.000000 -1.000000
vn 0.000000 0.000000 -1.000000
vn 1.000000 0.000000 0.000000
vn 1.000000 0.000000 0.000000
vn 1.000000 0.000000 0.000000
vn 1.000000 0.000000 0.000000
vn -1.000000 0.000000 0.000000
vn -1.000000 0.000000 0.000000
vn -1.000000 0.000000 0.000000
vn -1.000000 0.000000 0.000000
vn 0.000000 0.000000 1.000000
vn 0.000000 0.000000 1.000000
vn 0.000000 0.000000 1.000000
vn 0.000000 0.000000 1.000000
vn 0.000000 1.000000 0.000000
vn 0.000000 1.000000 0.000000
vn 0.000000 1.000000 0.000000
vn 0.000000 1.000000 0.000000
vn 0.000000 0.000000 -1.000000
vn 0.000000 0.000000 -1.000000
vn 0.000000 0.000000 -1.000000
vn 0.000000 0.000000 -1.000000
vn 1.000000 0.000000 0.000000
vn 1.000000 0.000000 0.000000
vn 1.000000 0.000000 0.000000
vn 1.000000 0.000000 0.000000
vn -1.000000 0.000000 0.000000
vn -1.000000 0.000000 0.000000
vn -1.000000 0.000000 0.000000
vn -1.000000 0.000000 0.000000
vn 0.000000 0.000000 1.000000
vn 0.000000 0.000000 1.000000
vn 0.000000 0.000000 1.000000
vn 0.000000 0.000000 1.000000
vn 0.000000 0.000000 1.000000
vn 0.000000 0.000000 1.000000
vn 0.000000 1.000000 0.000000
vn 0.000000 1.000000 0.000000
vn 0.000000 1.000000 0.000000
vn 0.000000 1.000000 0.000000
vn 0.000000 1.000000 0.000000
vn 0.000000 1.000000 0.000000
vn 0.000000 1.000000 0.000000
vn 0.000000 1.000000 0.000000
vn 0.000000 1.000000 0.000000
vn 0.000000 0.000000 -1.000000
vn 0.000000 0.000000 -1.000000
vn 0.000000 0.000000 -1.000000
vn 0.000000 0.000000 -1.000000
vn 0.000000 0.000000 -1.000000
vn 0.000000 0.000000 -1.000000
vn 1.000000 0.000000 0.000000
vn 1.000000 0.000000 0.000000
vn 1.000000 0.000000 0.000000
vn 1.000000 0.000000 0.000000
vn 1.000000 0.000000 0.000000
vn 1.000000 0.000000 0.000000
vn -1.000000 0.000000 0.000000
vn -1.000000 0.000000 0.000000
vn -1.000000 0.000000 0.000000
vn -1.000000 0.000000 0.000000
vn -1.000000 0.000000 0.000000
vn -1.000000 0.000000 0.000000
vn -1.000000 0.000000 0.000000
vn -1.000000 0.000000 0.000000
vn 0.000000 -1.000000 0.000000
vn 0.000000 -1.000000 0.000000
vn 0.000000 -1.000000 0.000000
vn 0.000000 -1.000000 0.000000
vn 0.000000 0.000000 1.000000
vn 0.000000 0.000000 1.000000
vn 0.000000 1.000000 0.000000
vn 0.000000 1.000000 0.000000
vn 0.000000 0.000000 -1.000000
vn 0.000000 0.000000 -1.000000
vn 0.000000 0.000000 -1.000000
vn 0.000000 0.000000 -1.000000
vn 0.000000 0.000000 1.000000
vn 0.000000 0.000000 1.000000
vn 0.000000 0.000000 1.000000
vn 0.000000 0.000000 1.000000
vn 0.000000 1.000000 0.000000
vn 0.000000 1.000000 0.000000
vn 0.000000 1.000000 0.000000
vn 0.000000 1.000000 0.000000
vn 0.000000 0.000000 -1.000000
vn 0.000000 0.000000 -1.000000
vn 0.000000 0.000000 -1.000000
vn 0.000000 0.000000 -1.000000
vn 1.000000 0.000000 0.000000
vn 1.000000 0.000000 0.000000
vn 1.000000 0.000000 0.000000
vn 1.000000 0.000000 0.000000
vn -1.000000 0.000000 0.000000
vn -1.000000 0.000000 0.000000
vn -1.000000 0.000000 0.000000
vn -1.000000 0.000000 0.000000
vn 1.000000 0.000000 0.000000
vn 1.000000 0.000000 0.000000
vn 1.000000 0.000000 0.000000
vn 1.000000 0.000000 0.000000
vn 1.000000 0.000000 0.000000
vn 1.000000 0.000000 0.000000
vn 0.000000 1.000000 0.000000
vn 0.000000 1.000000 0.000000
vn 0.000000 1.000000 0.000000
vn 0.000000 1.000000 0.000000
vn 0.000000 1.000000 0.000000
vn 0.000000 1.000000 0.000000
vn 0.000000 1.000000 0.000000
vn 0.000000 1.000000 0.000000
vn 0.000000 1.000000 0.000000
vn -1.000000 0.000000 0.000000
vn -1.000000 0.000000 0.000000
vn -1.000000 0.000000 0.000000
vn -1.000000 0.000000 0.000000
vn -1.000000 0.000000 0.000000
vn -1.000000 0.000000 0.000000
vn 0.000000 0.000000 -1.000000
vn 0.000000 0.000000 -1.000000
vn 0.000000 0.000000 -1.000000
vn 0.000000 0.000000 -1.000000
vn 0.000000 0.000000 -1.000000
vn 0.000000 0.000000 -1.000000
vn 0.000000 0.000000 1.000000
vn 0.000000 0.000000 1.000000
vn 0.000000 0.000000 1.000000
vn 0.000000 0.000000 1.000000
vn 0.000000 0.000000 1.000000
vn 0.000000 0.000000 1.000000
vn 0.000000 0.000000 1.000000
vn 0.000000 0.000000 1.000000
vn 0.000000 -1.000000 0.000000
vn 0.000000 -1.000000 0.000000
vn 0.000000 -1.000000 0.000000
vn 0.000000 -1.000000 0.000000
vn 1.000000 0.000000 0.000000
vn 1.000000 0.000000 0.000000
vn 0.000000 1.000000 0.000000
vn 0.000000 1.000000 0.000000
vn -1.000000 0.000000 0.000000
vn -1.000000 0.000000 0.000000
vn -1.000000 0.000000 0.000000
vn -1.000000 0.000000 0.000000
s off
g grp_building_geo4 building_grp
usemtl initialShadingGroup
f 19//1 20//2 21//3 22//4
f 1/5/5 4/6/6 3/7/7 2/8/8
f 1/9/9 2/10/10 6/11/11 5/12/12
f 2/13/13 3/14/14 7/15/15 6/16/16
f 3/17/17 4/18/18 8/19/19 7/20/20
f 4/21/21 1/22/22 5/23/23 8/24/24
s 1
f 5//25 6//26 10//27 9//28
f 6//26 7//29 11//30 10//27
f 7//29 8//31 12//32 11//30
f 8//31 5//25 9//28 12//32
s off
f 9/33/33 10/34/34 14/35/35 17/36/36 13/37/37
f 10/38/38 11/39/39 15/40/40 14/41/41
f 11/42/42 12/43/43 16/44/44 18/45/45 15/46/46
f 12/47/47 9/48/48 13/49/49 16/50/50
f 17//51 14//52 15//53 18//54
f 13/54/55 17/53/56 20/52/57 19/51/58
f 17/32/59 18/31/60 21/30/61 20/29/62
f 18/28/63 16/27/64 22/26/65 21/25/66
f 16/4/67 13/3/68 19/2/69 22/1/70
f 23//71 24//72 26//73 25//74
f 25//75 26//76 28//77 27//78
f 27//79 28//80 30//81 29//82
f 24//83 30//84 28//85 26//86
f 29//87 23//88 25//89 27//90
f 31//91 32//92 33//93 34//94
f 34//95 33//96 35//97 36//98
f 36//99 35//100 37//101 38//102
f 32//103 37//104 35//105 33//106
f 38//107 31//108 34//109 36//110
f 39//111 40//112 41//113 42//114
f 42//115 41//116 43//117 44//118
f 44//119 43//120 45//121 46//122
f 40//123 45//124 43//125 41//126
f 46//127 39//128 42//129 44//130
f 47//131 48//132 49//133 50//134
f 50//135 49//136 51//137 52//138
f 52//139 51//140 53//141 54//142
f 48//143 53//144 51//145 49//146
f 54//147 47//148 50//149 52//150
f 55//151 56//152 58//153 57//154
f 57//155 58//156 60//157 59//158
f 59//159 60//160 62//161 61//162
f 56//163 62//164 60//165 58//166
f 61//167 55//168 57//169 59//170
f 63//171 64//172 65//173 66//174
f 66//175 65//176 67//177 68//178
f 68//179 67//180 69//181 70//182
f 64//183 69//184 67//185 65//186
f 70//187 63//188 66//189 68//190
f 71//191 72//192 73//193 74//194
f 74//195 73//196 75//197 76//198
f 76//199 75//200 77//201 78//202
f 72//203 77//204 75//205 73//206
f 78//207 71//208 74//209 76//210
s 2
f 79//211 80//212 83//213 82//214
f 80//212 81//215 84//216 83//213
s 3
f 82//217 83//218 86//219 85//220
f 83//218 84//221 87//222 86//219
f 85//220 86//219 89//223 88//224
f 86//219 87//222 90//225 89//223
s 4
f 88//226 89//227 92//228 91//229
f 89//227 90//230 93//231 92//228
s 5
f 95//232 93//233 90//234 87//235
f 81//236 95//232 87//235 84//237
s off
f 91//238 94//239 85//240 88//241
f 96//242 97//243 98//244 99//245
f 94//246 79//247 97//248 96//249
s 2
f 79//211 82//214 98//250 97//251
s 3
f 82//217 85//220 99//252 98//253
s off
f 85//254 94//255 96//256 99//257
f 100//258 101//259 103//260 102//261
f 102//262 103//263 105//264 104//265
f 104//266 105//267 107//268 106//269
f 101//270 107//271 105//272 103//273
f 106//274 100//275 102//276 104//277
s 6
f 108//278 109//279 112//280 111//281
f 109//279 110//282 113//283 112//280
s 7
f 111//284 112//285 115//286 114//287
f 112//285 113//288 116//289 115//286
f 114//287 115//286 118//290 117//291
f 115//286 116//289 119//292 118//290
s 8
f 117//293 118//294 121//295 120//296
f 118//294 119//297 122//298 121//295
s 9
f 124//299 122//300 119//301 116//302
f 110//303 124//299 116//302 113//304
s off
f 120//305 123//306 114//307 117//308
f 125//309 126//310 127//311 128//312
f 123//313 108//314 126//315 125//316
s 6
f 108//278 111//281 127//317 126//318
s 7
f 111//284 114//287 128//319 127//320
s off
f 114//321 123//322 125//323 128//324
