# This file uses centimeters as units for non-parametric coordinates.

mtllib building7.mtl
g default
v 18.431984 0.000000 -18.884956
v 15.000000 0.000000 -18.884956
v 15.000000 0.000000 -15.000000
v 18.431984 0.000000 -15.000000
v 18.431984 11.182221 -18.884956
v 15.000000 11.182221 -18.884956
v 15.000000 11.182221 -15.000000
v 18.431984 11.182221 -15.000000
v 18.346184 11.182221 -18.787834
v 15.085800 11.182221 -18.787834
v 15.085800 11.182221 -15.097124
v 18.346184 11.182221 -15.097124
v 18.346184 11.152221 -18.787834
v 15.085800 11.152221 -18.787834
v 15.085800 11.152221 -15.097124
v 18.346184 11.152221 -15.097124
v 17.825417 11.152221 -18.198334
v 15.606567 11.152221 -18.198334
v 15.606567 11.152221 -15.686623
v 17.825417 11.152221 -15.686623
vt 0.256088 0.005178
vt 0.256088 0.346911
vt -0.001394 0.346911
vt -0.001394 0.005178
vt -0.001394 0.005178
vt 0.256088 0.005178
vt 0.256088 0.944943
vt -0.001394 0.944943
vt -0.001394 0.005178
vt 0.341915 0.005178
vt 0.341915 0.944943
vt -0.001394 0.944943
vt -0.001394 0.005178
vt 0.256088 0.005178
vt 0.256088 0.944943
vt -0.001394 0.944943
vt -0.001394 0.005178
vt 0.341915 0.005178
vt 0.341915 0.944943
vt -0.001394 0.944943
vt 0.256088 0.005178
vt -0.001394 0.005178
vt -0.001394 0.005178
vt 0.256088 0.005178
vt 0.341915 0.005178
vt -0.001394 0.005178
vt -0.001394 0.005178
vt 0.341915 0.005178
vt 0.256088 0.005178
vt -0.001394 0.005178
vt -0.001394 0.005178
vt 0.256088 0.005178
vt 0.341915 0.005178
vt -0.001394 0.005178
vt -0.001394 0.005178
vt 0.341915 0.005178
vn 0.000000 -1.000000 0.000000
vn 0.000000 -1.000000 0.000000
vn 0.000000 -1.000000 0.000000
vn 0.000000 -1.000000 0.000000
vn 0.000000 0.000000 -1.000000
vn 0.000000 0.000000 -1.000000
vn 0.000000 0.000000 -1.000000
vn 0.000000 0.000000 -1.000000
vn -1.000000 0.000000 0.000000
vn -1.000000 0.000000 0.000000
vn -1.000000 0.000000 0.000000
vn -1.000000 0.000000 0.000000
vn 0.000000 0.000000 1.000000
vn 0.000000 0.000000 1.000000
vn 0.000000 0.000000 1.000000
vn 0.000000 0.000000 1.000000
vn 1.000000 0.000000 0.000000
vn 1.000000 0.000000 0.000000
vn 1.000000 0.000000 0.000000
vn 1.000000 0.000000 0.000000
vn 0.000000 1.000000 -0.000003
vn 0.000000 1.000000 -0.000003
vn 0.000000 1.000000 -0.000003
vn 0.000000 1.000000 -0.000003
vn 0.000000 1.000000 0.000003
vn 0.000000 1.000000 0.000003
vn 0.000000 1.000000 0.000003
vn 0.000000 1.000000 0.000003
vn 0.000000 0.000000 1.000000
vn 0.000000 0.000000 1.000000
vn 0.000000 0.000000 1.000000
vn 0.000000 0.000000 1.000000
vn 1.000000 0.000000 0.000000
vn 1.000000 0.000000 0.000000
vn 1.000000 0.000000 0.000000
vn 1.000000 0.000000 0.000000
vn 0.000000 0.000000 -1.000000
vn 0.000000 0.000000 -1.000000
vn 0.000000 0.000000 -1.000000
vn 0.000000 0.000000 -1.000000
vn -1.000000 0.000000 0.000000
vn -1.000000 0.000000 0.000000
vn -1.000000 0.000000 0.000000
vn -1.000000 0.000000 0.000000
vn 0.000000 1.000000 0.000000
vn 0.000000 1.000000 0.000000
vn 0.000000 1.000000 0.000000
vn 0.000000 1.000000 0.000000
vn 0.000000 1.000000 -0.000000
vn 0.000000 1.000000 -0.000000
vn 0.000000 1.000000 -0.000000
vn 0.000000 1.000000 -0.000000
vn 0.000000 1.000000 0.000000
vn 0.000000 1.000000 0.000000
vn 0.000000 1.000000 0.000000
vn 0.000000 1.000000 0.000000
s off
g grp_building_geo80 building_grp
usemtl lambert2SG
f 1/1/1 4/2/2 3/3/3 2/4/4
f 1/5/5 2/6/6 6/7/7 5/8/8
f 2/9/9 3/10/10 7/11/11 6/12/12
f 3/13/13 4/14/14 8/15/15 7/16/16
f 4/17/17 1/18/18 5/19/19 8/20/20
s 1
f 5//21 6//22 10//23 9//24
f 6//22 7//25 11//26 10//23
f 7//25 8//27 12//28 11//26
f 8//27 5//21 9//24 12//28
s off
f 9/21/29 10/22/30 14/23/31 13/24/32
f 10/25/33 11/26/34 15/27/35 14/28/36
f 11/29/37 12/30/38 16/31/39 15/32/40
f 12/33/41 9/34/42 13/35/43 16/36/44
s 2
f 13//45 14//46 18//47 17//48
f 14//46 15//49 19//50 18//47
f 15//49 16//51 20//52 19//50
f 16//51 13//45 17//48 20//52
s off
f 18//53 19//54 20//55 17//56
