# This file uses centimeters as units for non-parametric coordinates.

mtllib Building_Three.mtl
g default
v 7.723215 -0.000000 3.331970
v 3.638676 -0.000000 3.331970
v 3.638676 -0.000000 8.319144
v 7.723215 -0.000000 8.319144
v 7.723215 24.918150 3.331970
v 3.638676 24.918150 3.331970
v 3.638676 24.918150 8.319144
v 7.723215 24.918150 8.319144
v 7.621101 24.918150 3.456650
v 3.740790 24.918150 3.456650
v 3.740790 24.918150 8.194465
v 7.621101 24.918150 8.194465
v 7.621101 24.888151 3.456650
v 3.740790 24.888151 3.456650
v 3.740790 24.888151 8.194465
v 7.621101 24.888151 8.194465
v 7.081886 24.888151 4.115026
v 4.280006 24.888151 4.115026
v 4.280006 24.888151 7.536088
v 7.081886 24.888151 7.536088
v 7.081886 28.822054 4.115026
v 4.280006 28.822054 4.115026
v 4.280006 28.822054 7.536088
v 7.081886 28.822054 7.536088
v 7.011838 28.822054 4.200552
v 4.350053 28.822054 4.200552
v 4.350053 28.822054 7.450562
v 7.011838 28.822054 7.450562
v 7.011838 28.792055 4.200552
v 4.350053 28.792055 4.200552
v 4.350053 28.792055 7.450562
v 7.011838 28.792055 7.450562
v 6.641951 28.792055 4.652180
v 4.719941 28.792055 4.652180
v 4.719941 28.792055 6.998934
v 6.641951 28.792055 6.998934
v 6.641951 31.939177 4.652180
v 4.719941 31.939177 4.652180
v 4.719941 31.939177 6.998934
v 6.641951 31.939177 6.998934
v 6.593901 31.939177 4.710849
v 4.767991 31.939177 4.710849
v 4.767991 31.939177 6.940265
v 6.593901 31.939177 6.940265
v 6.593901 31.909178 4.710849
v 4.767991 31.909178 4.710849
v 4.767991 31.909178 6.940265
v 6.593901 31.909178 6.940265
v 6.340169 31.909178 5.020653
v 5.021723 31.909178 5.020653
v 5.021723 31.909178 6.630461
v 6.340169 31.909178 6.630461
v 6.340169 34.426876 5.020653
v 5.021723 34.426876 5.020653
v 5.021723 34.426876 6.630461
v 6.340169 34.426876 6.630461
v 6.307208 34.426876 5.060898
v 5.054684 34.426876 5.060898
v 5.054684 34.426876 6.590216
v 6.307208 34.426876 6.590216
v 6.307208 34.396877 5.060898
v 5.054684 34.396877 5.060898
v 5.054684 34.396877 6.590216
v 6.307208 34.396877 6.590216
v 5.743571 34.396877 5.749090
v 5.618319 34.396877 5.749090
v 5.618319 34.396877 5.902022
v 5.743571 34.396877 5.902022
v 5.687207 37.760990 5.817909
v 5.674683 37.760990 5.817909
v 5.674683 37.760990 5.833203
v 5.687207 37.760990 5.833203
v 7.825329 -0.000000 8.435082
v 7.825329 -0.000000 8.203206
v 7.825329 24.359015 8.435082
v 7.825329 24.359015 8.203206
v 3.536562 24.359015 8.435082
v 3.536562 24.359015 8.203206
v 3.536562 -0.000000 8.435082
v 3.536562 -0.000000 8.203206
v 7.825329 -0.000000 7.603887
v 7.825329 -0.000000 7.372010
v 7.825329 24.359015 7.372010
v 7.825329 24.359015 7.603887
v 3.536562 24.359015 7.372010
v 3.536562 24.359015 7.603887
v 3.536562 -0.000000 7.372010
v 3.536562 -0.000000 7.603887
v 7.825329 -0.000000 6.772691
v 7.825329 -0.000000 6.540814
v 7.825329 24.359015 6.540814
v 7.825329 24.359015 6.772691
v 3.536562 24.359015 6.540814
v 3.536562 24.359015 6.772691
v 3.536562 -0.000000 6.540814
v 3.536562 -0.000000 6.772691
v 7.825329 -0.000000 5.941495
v 7.825329 -0.000000 5.709619
v 7.825329 24.359015 5.709619
v 7.825329 24.359015 5.941495
v 3.536562 24.359015 5.709619
v 3.536562 24.359015 5.941495
v 3.536562 -0.000000 5.709619
v 3.536562 -0.000000 5.941495
v 7.825329 -0.000000 5.110300
v 7.825329 -0.000000 4.878423
v 7.825329 24.359015 4.878423
v 7.825329 24.359015 5.110300
v 3.536562 24.359015 4.878423
v 3.536562 24.359015 5.110300
v 3.536562 -0.000000 4.878423
v 3.536562 -0.000000 5.110300
v 7.825329 -0.000000 4.279104
v 7.825329 -0.000000 4.047227
v 7.825329 24.359015 4.047227
v 7.825329 24.359015 4.279104
v 3.536562 24.359015 4.047227
v 3.536562 24.359015 4.279104
v 3.536562 -0.000000 4.047227
v 3.536562 -0.000000 4.279104
v 7.825329 -0.000000 3.447908
v 7.825329 -0.000000 3.216032
v 7.825329 24.359015 3.216032
v 7.825329 24.359015 3.447908
v 3.536562 24.359015 3.216032
v 3.536562 24.359015 3.447908
v 3.536562 -0.000000 3.216032
v 3.536562 -0.000000 3.447908
vt 0.000000 3.000000
vt 0.000000 3.000000
vt 0.250000 0.000000
vt 0.000000 0.000000
vt 4.000000 0.000000
vt 4.000000 5.000000
vt 0.000000 5.000000
vt 0.000000 0.000000
vt 0.000000 0.000000
vt 4.000000 0.000000
vt 4.000000 25.000000
vt 0.000000 25.000000
vt 0.000000 0.000000
vt 5.000000 0.000000
vt 5.000000 25.000000
vt 0.000000 25.000000
vt 0.000000 0.000000
vt 4.000000 0.000000
vt 4.000000 25.000000
vt 0.000000 25.000000
vt 0.000000 0.000000
vt 5.000000 0.000000
vt 5.000000 25.000000
vt 0.000000 25.000000
vt 0.000000 3.000000
vt 0.000000 3.000000
vt 0.250000 0.000000
vt 0.000000 0.000000
vt 0.000000 3.000000
vt 0.000000 3.000000
vt 0.250000 0.000000
vt 0.000000 0.000000
vt 4.000000 0.000000
vt 0.000000 0.000000
vt 0.000000 0.000000
vt 4.000000 0.000000
vt 5.000000 0.000000
vt 0.000000 0.000000
vt 0.000000 0.000000
vt 5.000000 0.000000
vt 4.000000 0.000000
vt 0.000000 0.000000
vt 0.000000 0.000000
vt 4.000000 0.000000
vt 5.000000 0.000000
vt 0.000000 0.000000
vt 0.000000 0.000000
vt 5.000000 0.000000
vt 0.250000 3.000000
vt 0.250000 3.000000
vt 0.250000 0.000000
vt 0.000000 0.000000
vt 2.000000 0.000000
vt 0.000000 0.000000
vt 0.000000 0.000000
vt 2.000000 0.000000
vt 0.000000 0.000000
vt 3.000000 0.000000
vt 3.000000 4.000000
vt 0.000000 4.000000
vt 0.000000 0.000000
vt 3.000000 0.000000
vt 3.000000 4.000000
vt 0.000000 4.000000
vt 0.000000 0.000000
vt 3.000000 0.000000
vt 3.000000 4.000000
vt 0.000000 4.000000
vt 0.000000 0.000000
vt 3.000000 0.000000
vt 3.000000 4.000000
vt 0.000000 4.000000
vt 1.000000 0.000000
vt 0.000000 0.000000
vt 0.000000 0.000000
vt 1.000000 0.000000
vt 2.000000 0.000000
vt 0.000000 0.000000
vt 0.000000 0.000000
vt 2.000000 0.000000
vt 3.000000 0.000000
vt 0.000000 0.000000
vt 0.000000 0.000000
vt 3.000000 0.000000
vt 3.000000 0.000000
vt 0.000000 0.000000
vt 0.000000 0.000000
vt 3.000000 0.000000
vt 0.000000 0.000000
vt 3.000000 0.000000
vt 3.000000 0.000000
vt 0.000000 0.000000
vt 3.000000 0.000000
vt 0.000000 0.000000
vt 0.000000 0.000000
vt 3.000000 0.000000
vt 1.000000 0.000000
vt 0.000000 0.000000
vt 0.000000 0.000000
vt 1.000000 0.000000
vt 0.000000 3.000000
vt 2.000000 3.000000
vt 2.000000 0.000000
vt 0.000000 0.000000
vt 0.000000 0.000000
vt 2.000000 0.000000
vt 2.000000 3.000000
vt 0.000000 3.000000
vt 0.000000 0.000000
vt 2.000000 0.000000
vt 2.000000 3.000000
vt 0.000000 3.000000
vt 0.000000 0.000000
vt 2.000000 0.000000
vt 2.000000 3.000000
vt 0.000000 3.000000
vt 0.000000 0.000000
vt 2.000000 0.000000
vt 2.000000 3.000000
vt 0.000000 3.000000
vt 0.000000 3.000000
vt 1.000000 3.000000
vt 1.000000 0.000000
vt 0.000000 0.000000
vt 0.000000 3.000000
vt 2.000000 3.000000
vt 2.000000 0.000000
vt 0.000000 0.000000
vt 2.000000 0.000000
vt 0.000000 0.000000
vt 0.000000 0.000000
vt 2.000000 0.000000
vt 2.000000 0.000000
vt 0.000000 0.000000
vt 0.000000 0.000000
vt 2.000000 0.000000
vt 2.000000 0.000000
vt 0.000000 0.000000
vt 0.000000 0.000000
vt 2.000000 0.000000
vt 2.000000 0.000000
vt 0.000000 0.000000
vt 0.000000 0.000000
vt 2.000000 0.000000
vt 0.000000 3.000000
vt 1.000000 3.000000
vt 1.000000 0.000000
vt 0.000000 0.000000
vn 0.000000 1.000000 0.000000
vn 0.000000 1.000000 0.000000
vn 0.000000 1.000000 0.000000
vn 0.000000 1.000000 0.000000
vn 0.000000 -1.000000 0.000000
vn 0.000000 -1.000000 0.000000
vn 0.000000 -1.000000 0.000000
vn 0.000000 -1.000000 0.000000
vn 0.000000 0.000000 -1.000000
vn 0.000000 0.000000 -1.000000
vn 0.000000 0.000000 -1.000000
vn 0.000000 0.000000 -1.000000
vn -1.000000 0.000000 0.000000
vn -1.000000 0.000000 0.000000
vn -1.000000 0.000000 0.000000
vn -1.000000 0.000000 0.000000
vn 0.000000 0.000000 1.000000
vn 0.000000 0.000000 1.000000
vn 0.000000 0.000000 1.000000
vn 0.000000 0.000000 1.000000
vn 1.000000 0.000000 0.000000
vn 1.000000 0.000000 0.000000
vn 1.000000 0.000000 0.000000
vn 1.000000 0.000000 0.000000
vn 0.000000 1.000000 -0.000006
vn 0.000000 1.000000 -0.000006
vn 0.000000 1.000000 -0.000006
vn 0.000000 1.000000 -0.000006
vn 0.000000 1.000000 0.000006
vn 0.000000 1.000000 0.000006
vn 0.000000 1.000000 0.000006
vn 0.000000 1.000000 0.000006
vn 0.000000 0.000000 1.000000
vn 0.000000 0.000000 1.000000
vn 0.000000 0.000000 1.000000
vn 0.000000 0.000000 1.000000
vn 1.000000 0.000000 0.000000
vn 1.000000 0.000000 0.000000
vn 1.000000 0.000000 0.000000
vn 1.000000 0.000000 0.000000
vn 0.000000 0.000000 -1.000000
vn 0.000000 0.000000 -1.000000
vn 0.000000 0.000000 -1.000000
vn 0.000000 0.000000 -1.000000
vn -1.000000 0.000000 0.000000
vn -1.000000 0.000000 0.000000
vn -1.000000 0.000000 0.000000
vn -1.000000 0.000000 0.000000
vn 0.000000 1.000000 -0.000001
vn 0.000000 1.000000 -0.000001
vn 0.000000 1.000000 -0.000001
vn 0.000000 1.000000 -0.000001
vn 0.000000 1.000000 0.000000
vn 0.000000 1.000000 0.000000
vn 0.000000 1.000000 0.000000
vn 0.000000 1.000000 0.000000
vn 0.000000 0.000000 -1.000000
vn 0.000000 0.000000 -1.000000
vn 0.000000 0.000000 -1.000000
vn 0.000000 0.000000 -1.000000
vn -1.000000 0.000000 0.000000
vn -1.000000 0.000000 0.000000
vn -1.000000 0.000000 0.000000
vn -1.000000 0.000000 0.000000
vn 0.000000 0.000000 1.000000
vn 0.000000 0.000000 1.000000
vn 0.000000 0.000000 1.000000
vn 0.000000 0.000000 1.000000
vn 1.000000 0.000000 0.000000
vn 1.000000 0.000000 0.000000
vn 1.000000 0.000000 0.000000
vn 1.000000 0.000000 0.000000
vn 0.000000 1.000000 0.000009
vn 0.000000 1.000000 0.000009
vn 0.000000 1.000000 0.000009
vn 0.000000 1.000000 0.000009
vn 0.000000 1.000000 -0.000009
vn 0.000000 1.000000 -0.000009
vn 0.000000 1.000000 -0.000009
vn 0.000000 1.000000 -0.000009
vn 0.000000 0.000000 1.000000
vn 0.000000 0.000000 1.000000
vn 0.000000 0.000000 1.000000
vn 0.000000 0.000000 1.000000
vn 1.000000 0.000000 0.000000
vn 1.000000 0.000000 0.000000
vn 1.000000 0.000000 0.000000
vn 1.000000 0.000000 0.000000
vn 0.000000 0.000000 -1.000000
vn 0.000000 0.000000 -1.000000
vn 0.000000 0.000000 -1.000000
vn 0.000000 0.000000 -1.000000
vn -1.000000 0.000000 0.000000
vn -1.000000 0.000000 0.000000
vn -1.000000 0.000000 0.000000
vn -1.000000 0.000000 0.000000
vn 0.000000 1.000000 0.000000
vn 0.000000 1.000000 0.000000
vn 0.000000 1.000000 0.000000
vn 0.000000 1.000000 0.000000
vn 0.000000 1.000000 -0.000000
vn 0.000000 1.000000 -0.000000
vn 0.000000 1.000000 -0.000000
vn 0.000000 1.000000 -0.000000
vn 0.000000 0.000000 -1.000000
vn 0.000000 0.000000 -1.000000
vn 0.000000 0.000000 -1.000000
vn 0.000000 0.000000 -1.000000
vn -1.000000 0.000000 0.000000
vn -1.000000 0.000000 0.000000
vn -1.000000 0.000000 0.000000
vn -1.000000 0.000000 0.000000
vn 0.000000 0.000000 1.000000
vn 0.000000 0.000000 1.000000
vn 0.000000 0.000000 1.000000
vn 0.000000 0.000000 1.000000
vn 1.000000 0.000000 0.000000
vn 1.000000 0.000000 0.000000
vn 1.000000 0.000000 0.000000
vn 1.000000 0.000000 0.000000
vn 0.000000 1.000000 0.000002
vn 0.000000 1.000000 0.000002
vn 0.000000 1.000000 0.000002
vn 0.000000 1.000000 0.000002
vn 0.000000 1.000000 -0.000002
vn 0.000000 1.000000 -0.000002
vn 0.000000 1.000000 -0.000002
vn 0.000000 1.000000 -0.000002
vn 0.000000 0.000000 1.000000
vn 0.000000 0.000000 1.000000
vn 0.000000 0.000000 1.000000
vn 0.000000 0.000000 1.000000
vn 1.000000 0.000000 0.000000
vn 1.000000 0.000000 0.000000
vn 1.000000 0.000000 0.000000
vn 1.000000 0.000000 0.000000
vn 0.000000 0.000000 -1.000000
vn 0.000000 0.000000 -1.000000
vn 0.000000 0.000000 -1.000000
vn 0.000000 0.000000 -1.000000
vn -1.000000 0.000000 0.000000
vn -1.000000 0.000000 0.000000
vn -1.000000 0.000000 0.000000
vn -1.000000 0.000000 0.000000
vn 0.000000 1.000000 0.000000
vn 0.000000 1.000000 0.000000
vn 0.000000 1.000000 0.000000
vn 0.000000 1.000000 0.000000
vn 0.000000 1.000000 0.000000
vn 0.000000 1.000000 0.000000
vn 0.000000 1.000000 0.000000
vn 0.000000 1.000000 0.000000
vn 0.000000 0.000000 -1.000000
vn 0.000000 0.000000 -1.000000
vn 0.000000 0.000000 -1.000000
vn 0.000000 0.000000 -1.000000
vn -1.000000 0.000000 0.000000
vn -1.000000 0.000000 0.000000
vn -1.000000 0.000000 0.000000
vn -1.000000 0.000000 0.000000
vn 0.000000 0.000000 1.000000
vn 0.000000 0.000000 1.000000
vn 0.000000 0.000000 1.000000
vn 0.000000 0.000000 1.000000
vn 1.000000 0.000000 0.000000
vn 1.000000 0.000000 0.000000
vn 1.000000 0.000000 0.000000
vn 1.000000 0.000000 0.000000
vn 0.000000 1.000000 0.000021
vn 0.000000 1.000000 0.000021
vn 0.000000 1.000000 0.000021
vn 0.000000 1.000000 0.000021
vn 0.000000 1.000000 -0.000021
vn 0.000000 1.000000 -0.000021
vn 0.000000 1.000000 -0.000021
vn 0.000000 1.000000 -0.000021
vn 0.000000 0.000000 1.000000
vn 0.000000 0.000000 1.000000
vn 0.000000 0.000000 1.000000
vn 0.000000 0.000000 1.000000
vn 1.000000 0.000000 0.000000
vn 1.000000 0.000000 0.000000
vn 1.000000 0.000000 0.000000
vn 1.000000 0.000000 0.000000
vn 0.000000 0.000000 -1.000000
vn 0.000000 0.000000 -1.000000
vn 0.000000 0.000000 -1.000000
vn 0.000000 0.000000 -1.000000
vn -1.000000 0.000000 0.000000
vn -1.000000 0.000000 0.000000
vn -1.000000 0.000000 0.000000
vn -1.000000 0.000000 0.000000
vn 0.000000 1.000000 0.000002
vn 0.000000 1.000000 0.000002
vn 0.000000 1.000000 0.000002
vn 0.000000 1.000000 0.000002
vn 0.000000 1.000000 -0.000002
vn 0.000000 1.000000 -0.000002
vn 0.000000 1.000000 -0.000002
vn 0.000000 1.000000 -0.000002
vn 0.000000 0.020453 -0.999791
vn 0.000000 0.020453 -0.999791
vn 0.000000 0.020453 -0.999791
vn 0.000000 0.020453 -0.999791
vn -0.999860 0.016752 0.000000
vn -0.999860 0.016752 0.000000
vn -0.999860 0.016752 0.000000
vn -0.999860 0.016752 0.000000
vn 0.000000 0.020453 0.999791
vn 0.000000 0.020453 0.999791
vn 0.000000 0.020453 0.999791
vn 0.000000 0.020453 0.999791
vn 0.999860 0.016752 0.000000
vn 0.999860 0.016752 0.000000
vn 0.999860 0.016752 0.000000
vn 0.999860 0.016752 0.000000
vn 1.000000 0.000000 0.000000
vn 1.000000 0.000000 0.000000
vn 1.000000 0.000000 0.000000
vn 1.000000 0.000000 0.000000
vn 0.000000 1.000000 0.000000
vn 0.000000 1.000000 0.000000
vn 0.000000 1.000000 0.000000
vn 0.000000 1.000000 0.000000
vn -1.000000 0.000000 0.000000
vn -1.000000 0.000000 0.000000
vn -1.000000 0.000000 0.000000
vn -1.000000 0.000000 0.000000
vn 0.000000 0.000000 -1.000000
vn 0.000000 0.000000 -1.000000
vn 0.000000 0.000000 -1.000000
vn 0.000000 0.000000 -1.000000
vn 0.000000 0.000000 1.000000
vn 0.000000 0.000000 1.000000
vn 0.000000 0.000000 1.000000
vn 0.000000 0.000000 1.000000
vn 1.000000 0.000000 0.000000
vn 1.000000 0.000000 0.000000
vn 1.000000 0.000000 0.000000
vn 1.000000 0.000000 0.000000
vn 0.000000 1.000000 0.000000
vn 0.000000 1.000000 0.000000
vn 0.000000 1.000000 0.000000
vn 0.000000 1.000000 0.000000
vn -1.000000 0.000000 0.000000
vn -1.000000 0.000000 0.000000
vn -1.000000 0.000000 0.000000
vn -1.000000 0.000000 0.000000
vn 0.000000 0.000000 -1.000000
vn 0.000000 0.000000 -1.000000
vn 0.000000 0.000000 -1.000000
vn 0.000000 0.000000 -1.000000
vn 0.000000 0.000000 1.000000
vn 0.000000 0.000000 1.000000
vn 0.000000 0.000000 1.000000
vn 0.000000 0.000000 1.000000
vn 1.000000 0.000000 0.000000
vn 1.000000 0.000000 0.000000
vn 1.000000 0.000000 0.000000
vn 1.000000 0.000000 0.000000
vn 0.000000 1.000000 0.000000
vn 0.000000 1.000000 0.000000
vn 0.000000 1.000000 0.000000
vn 0.000000 1.000000 0.000000
vn -1.000000 0.000000 0.000000
vn -1.000000 0.000000 0.000000
vn -1.000000 0.000000 0.000000
vn -1.000000 0.000000 0.000000
vn 0.000000 0.000000 -1.000000
vn 0.000000 0.000000 -1.000000
vn 0.000000 0.000000 -1.000000
vn 0.000000 0.000000 -1.000000
vn 0.000000 0.000000 1.000000
vn 0.000000 0.000000 1.000000
vn 0.000000 0.000000 1.000000
vn 0.000000 0.000000 1.000000
vn 1.000000 0.000000 0.000000
vn 1.000000 0.000000 0.000000
vn 1.000000 0.000000 0.000000
vn 1.000000 0.000000 0.000000
vn 0.000000 1.000000 0.000000
vn 0.000000 1.000000 0.000000
vn 0.000000 1.000000 0.000000
vn 0.000000 1.000000 0.000000
vn -1.000000 0.000000 0.000000
vn -1.000000 0.000000 0.000000
vn -1.000000 0.000000 0.000000
vn -1.000000 0.000000 0.000000
vn 0.000000 0.000000 -1.000000
vn 0.000000 0.000000 -1.000000
vn 0.000000 0.000000 -1.000000
vn 0.000000 0.000000 -1.000000
vn 0.000000 0.000000 1.000000
vn 0.000000 0.000000 1.000000
vn 0.000000 0.000000 1.000000
vn 0.000000 0.000000 1.000000
vn 1.000000 0.000000 0.000000
vn 1.000000 0.000000 0.000000
vn 1.000000 0.000000 0.000000
vn 1.000000 0.000000 0.000000
vn 0.000000 1.000000 0.000000
vn 0.000000 1.000000 0.000000
vn 0.000000 1.000000 0.000000
vn 0.000000 1.000000 0.000000
vn -1.000000 0.000000 0.000000
vn -1.000000 0.000000 0.000000
vn -1.000000 0.000000 0.000000
vn -1.000000 0.000000 0.000000
vn 0.000000 0.000000 -1.000000
vn 0.000000 0.000000 -1.000000
vn 0.000000 0.000000 -1.000000
vn 0.000000 0.000000 -1.000000
vn 0.000000 0.000000 1.000000
vn 0.000000 0.000000 1.000000
vn 0.000000 0.000000 1.000000
vn 0.000000 0.000000 1.000000
vn 1.000000 0.000000 0.000000
vn 1.000000 0.000000 0.000000
vn 1.000000 0.000000 0.000000
vn 1.000000 0.000000 0.000000
vn 0.000000 1.000000 0.000000
vn 0.000000 1.000000 0.000000
vn 0.000000 1.000000 0.000000
vn 0.000000 1.000000 0.000000
vn -1.000000 0.000000 0.000000
vn -1.000000 0.000000 0.000000
vn -1.000000 0.000000 0.000000
vn -1.000000 0.000000 0.000000
vn 0.000000 0.000000 -1.000000
vn 0.000000 0.000000 -1.000000
vn 0.000000 0.000000 -1.000000
vn 0.000000 0.000000 -1.000000
vn 0.000000 0.000000 1.000000
vn 0.000000 0.000000 1.000000
vn 0.000000 0.000000 1.000000
vn 0.000000 0.000000 1.000000
vn 1.000000 0.000000 0.000000
vn 1.000000 0.000000 0.000000
vn 1.000000 0.000000 0.000000
vn 1.000000 0.000000 0.000000
vn 0.000000 1.000000 0.000000
vn 0.000000 1.000000 0.000000
vn 0.000000 1.000000 0.000000
vn 0.000000 1.000000 0.000000
vn -1.000000 0.000000 0.000000
vn -1.000000 0.000000 0.000000
vn -1.000000 0.000000 0.000000
vn -1.000000 0.000000 0.000000
vn 0.000000 0.000000 -1.000000
vn 0.000000 0.000000 -1.000000
vn 0.000000 0.000000 -1.000000
vn 0.000000 0.000000 -1.000000
vn 0.000000 0.000000 1.000000
vn 0.000000 0.000000 1.000000
vn 0.000000 0.000000 1.000000
vn 0.000000 0.000000 1.000000
s off
g grp_building_geo8 building_grp
usemtl initialShadingGroup
f 69//1 70//2 71//3 72//4
f 1/5/5 4/6/6 3/7/7 2/8/8
f 1/9/9 2/10/10 6/11/11 5/12/12
f 2/13/13 3/14/14 7/15/15 6/16/16
f 3/17/17 4/18/18 8/19/19 7/20/20
f 4/21/21 1/22/22 5/23/23 8/24/24
s 1
f 5//25 6//26 10//27 9//28
f 6//26 7//29 11//30 10//27
f 7//29 8//31 12//32 11//30
f 8//31 5//25 9//28 12//32
s off
f 9/33/33 10/34/34 14/35/35 13/36/36
f 10/37/37 11/38/38 15/39/39 14/40/40
f 11/41/41 12/42/42 16/43/43 15/44/44
f 12/45/45 9/46/46 13/47/47 16/48/48
s 2
f 13//49 14//50 18//51 17//52
f 14//50 15//53 19//54 18//51
f 15//53 16//55 20//56 19//54
f 16//55 13//49 17//52 20//56
s off
f 17/57/57 18/58/58 22/59/59 21/60/60
f 18/61/61 19/62/62 23/63/63 22/64/64
f 19/65/65 20/66/66 24/67/67 23/68/68
f 20/69/69 17/70/70 21/71/71 24/72/72
s 3
f 21//73 22//74 26//75 25//76
f 22//74 23//77 27//78 26//75
f 23//77 24//79 28//80 27//78
f 24//79 21//73 25//76 28//80
s off
f 25/81/81 26/82/82 30/83/83 29/84/84
f 26/85/85 27/86/86 31/87/87 30/88/88
f 27/89/89 28/90/90 32/91/91 31/92/92
f 28/93/93 25/94/94 29/95/95 32/96/96
s 4
f 29//97 30//98 34//99 33//100
f 30//98 31//101 35//102 34//99
f 31//101 32//103 36//104 35//102
f 32//103 29//97 33//100 36//104
s off
f 33/105/105 34/106/106 38/107/107 37/108/108
f 34/109/109 35/110/110 39/111/111 38/112/112
f 35/113/113 36/114/114 40/115/115 39/116/116
f 36/117/117 33/118/118 37/119/119 40/120/120
s 5
f 37//121 38//122 42//123 41//124
f 38//122 39//125 43//126 42//123
f 39//125 40//127 44//128 43//126
f 40//127 37//121 41//124 44//128
s off
f 41/129/129 42/130/130 46/131/131 45/132/132
f 42/133/133 43/134/134 47/135/135 46/136/136
f 43/137/137 44/138/138 48/139/139 47/140/140
f 44/141/141 41/142/142 45/143/143 48/144/144
s 6
f 45//145 46//146 50//147 49//148
f 46//146 47//149 51//150 50//147
f 47//149 48//151 52//152 51//150
f 48//151 45//145 49//148 52//152
s off
f 49/148/153 50/147/154 54/146/155 53/145/156
f 50/128/157 51/127/158 55/126/159 54/125/160
f 51/124/161 52/123/162 56/122/163 55/121/164
f 52/104/165 49/103/166 53/102/167 56/101/168
s 7
f 53//169 54//170 58//171 57//172
f 54//170 55//173 59//174 58//171
f 55//173 56//175 60//176 59//174
f 56//175 53//169 57//172 60//176
s off
f 57/100/177 58/99/178 62/98/179 61/97/180
f 58/80/181 59/79/182 63/78/183 62/77/184
f 59/76/185 60/75/186 64/74/187 63/73/188
f 60/56/189 57/55/190 61/54/191 64/53/192
s 8
f 61//193 62//194 66//195 65//196
f 62//194 63//197 67//198 66//195
f 63//197 64//199 68//200 67//198
f 64//199 61//193 65//196 68//200
s off
f 65/52/201 66/51/202 70/50/203 69/49/204
f 66/32/205 67/31/206 71/30/207 70/29/208
f 67/28/209 68/27/210 72/26/211 71/25/212
f 68/4/213 65/3/214 69/2/215 72/1/216
f 73//217 74//218 76//219 75//220
f 75//221 76//222 78//223 77//224
f 77//225 78//226 80//227 79//228
f 74//229 80//230 78//231 76//232
f 79//233 73//234 75//235 77//236
f 81//237 82//238 83//239 84//240
f 84//241 83//242 85//243 86//244
f 86//245 85//246 87//247 88//248
f 82//249 87//250 85//251 83//252
f 88//253 81//254 84//255 86//256
f 89//257 90//258 91//259 92//260
f 92//261 91//262 93//263 94//264
f 94//265 93//266 95//267 96//268
f 90//269 95//270 93//271 91//272
f 96//273 89//274 92//275 94//276
f 97//277 98//278 99//279 100//280
f 100//281 99//282 101//283 102//284
f 102//285 101//286 103//287 104//288
f 98//289 103//290 101//291 99//292
f 104//293 97//294 100//295 102//296
f 105//297 106//298 107//299 108//300
f 108//301 107//302 109//303 110//304
f 110//305 109//306 111//307 112//308
f 106//309 111//310 109//311 107//312
f 112//313 105//314 108//315 110//316
f 113//317 114//318 115//319 116//320
f 116//321 115//322 117//323 118//324
f 118//325 117//326 119//327 120//328
f 114//329 119//330 117//331 115//332
f 120//333 113//334 116//335 118//336
f 121//337 122//338 123//339 124//340
f 124//341 123//342 125//343 126//344
f 126//345 125//346 127//347 128//348
f 122//349 127//350 125//351 123//352
f 128//353 121//354 124//355 126//356
