# This file uses centimeters as units for non-parametric coordinates.

mtllib Building_Six.mtl
g default
v -8.433764 0.000000 -14.491347
v -13.306899 0.000000 -14.491347
v -13.306899 0.000000 -9.758515
v -8.433764 0.000000 -9.758515
v -8.433764 14.950131 -14.491347
v -13.306899 14.950131 -14.491347
v -13.306899 14.950131 -9.758515
v -8.433764 14.950131 -9.758515
v -8.555592 14.950131 -14.373027
v -13.185071 14.950131 -14.373027
v -13.185071 14.950131 -9.876836
v -8.555592 14.950131 -9.876836
v -8.555592 14.920131 -14.373027
v -13.185071 14.920131 -14.373027
v -13.185071 14.920131 -9.876836
v -8.555592 14.920131 -9.876836
v -11.691426 14.920132 -14.373027
v -11.691426 14.920131 -9.876836
v -8.555592 15.263627 -14.373027
v -11.691426 15.263628 -14.373027
v -11.691426 15.263627 -9.876836
v -8.555592 15.263627 -9.876836
v -12.717191 14.920131 -10.214173
v -8.611588 14.920131 -10.214173
v -12.717191 15.222588 -10.214173
v -8.611588 15.222588 -10.214173
v -12.717191 15.222588 -13.908402
v -8.611588 15.222588 -13.908402
v -12.717191 14.920131 -13.908402
v -8.611588 14.920131 -13.908402
v -12.614551 15.222588 -10.306529
v -8.714227 15.222588 -10.306529
v -8.714227 15.222588 -13.816047
v -12.614551 15.222588 -13.816047
v -12.614551 15.218051 -10.306529
v -8.714227 15.218051 -10.306529
v -8.714227 15.218051 -13.816047
v -12.614551 15.218051 -13.816047
v -11.326728 15.263628 -11.904444
v -9.350613 15.263628 -11.904444
v -11.326728 15.486691 -11.904444
v -9.350613 15.486691 -11.904444
v -11.326728 15.486691 -13.765104
v -9.350613 15.486691 -13.765104
v -11.326728 15.263628 -13.765104
v -9.350613 15.263628 -13.765104
v -10.273094 15.263628 -10.076004
v -9.661417 15.263628 -10.076004
v -10.273094 15.540216 -10.076004
v -9.661417 15.540216 -10.076004
v -10.273094 15.540216 -10.544180
v -9.661417 15.540216 -10.544180
v -10.273094 15.263628 -10.544180
v -9.661417 15.263628 -10.544180
v -10.257803 15.540216 -10.087708
v -9.676710 15.540216 -10.087708
v -9.676710 15.540216 -10.532476
v -10.257803 15.540216 -10.532476
v -10.257803 15.536067 -10.087708
v -9.676710 15.536067 -10.087708
v -9.676710 15.536067 -10.532476
v -10.257803 15.536067 -10.532476
v -9.308681 15.263628 -10.076004
v -8.697006 15.263628 -10.076004
v -8.697006 15.540216 -10.076004
v -9.308681 15.540216 -10.076004
v -9.293390 15.536067 -10.087708
v -8.712297 15.536067 -10.087708
v -8.712297 15.536067 -10.532476
v -9.293390 15.536067 -10.532476
v -9.308681 15.540216 -10.544180
v -8.697006 15.540216 -10.544180
v -8.697006 15.263628 -10.544180
v -9.308681 15.263628 -10.544180
v -11.237507 15.263628 -10.076004
v -10.625832 15.263628 -10.076004
v -10.625832 15.540216 -10.076004
v -11.237507 15.540216 -10.076004
v -11.222216 15.536067 -10.087708
v -10.641123 15.536067 -10.087708
v -10.641123 15.536067 -10.532476
v -11.222216 15.536067 -10.532476
v -11.237507 15.540216 -10.544180
v -10.625832 15.540216 -10.544180
v -10.625832 15.263628 -10.544180
v -11.237507 15.263628 -10.544180
vt 0.000000 0.250000
vt 4.000000 0.250000
vt 4.000000 0.000000
vt 0.000000 0.000000
vt 5.000000 0.000000
vt 5.000000 5.000000
vt 0.000000 5.000000
vt 0.000000 0.000000
vt 0.000000 0.000000
vt 5.000000 0.000000
vt 5.000000 15.000000
vt 0.000000 15.000000
vt 0.000000 0.000000
vt 5.000000 0.000000
vt 5.000000 15.000000
vt 0.000000 15.000000
vt 0.000000 0.000000
vt 5.000000 0.000000
vt 5.000000 15.000000
vt 0.000000 15.000000
vt 0.000000 0.000000
vt 5.000000 0.000000
vt 5.000000 15.000000
vt 0.000000 15.000000
vt 0.000000 0.250000
vt 3.000000 0.250000
vt 3.000000 0.000000
vt 0.000000 0.000000
vt 0.000000 0.250000
vt 4.000000 0.250000
vt 4.000000 0.000000
vt 0.000000 0.000000
vt 5.000000 0.000000
vt 0.000000 0.000000
vt 0.000000 0.000000
vt 1.500000 0.000000
vt 5.000000 0.000000
vt 4.000000 0.000000
vt 0.000000 0.000000
vt 0.000000 0.000000
vt 4.000000 0.000000
vt 5.000000 0.000000
vt 0.000000 0.000000
vt 0.000000 0.000000
vt 3.500000 0.000000
vt 5.000000 0.000000
vt 4.000000 0.000000
vt 0.000000 0.000000
vt 0.000000 0.000000
vt 4.000000 0.000000
vt 0.000000 0.250000
vt 3.000000 0.250000
vt 3.000000 0.000000
vt 0.000000 0.000000
vn 0.000000 1.000000 0.000000
vn 0.000000 1.000000 0.000000
vn 0.000000 1.000000 0.000000
vn 0.000000 1.000000 0.000000
vn 0.000000 -1.000000 0.000000
vn 0.000000 -1.000000 0.000000
vn 0.000000 -1.000000 0.000000
vn 0.000000 -1.000000 0.000000
vn 0.000000 0.000000 -1.000000
vn 0.000000 0.000000 -1.000000
vn 0.000000 0.000000 -1.000000
vn 0.000000 0.000000 -1.000000
vn -1.000000 0.000000 0.000000
vn -1.000000 0.000000 0.000000
vn -1.000000 0.000000 0.000000
vn -1.000000 0.000000 0.000000
vn 0.000000 0.000000 1.000000
vn 0.000000 0.000000 1.000000
vn 0.000000 0.000000 1.000000
vn 0.000000 0.000000 1.000000
vn 1.000000 0.000000 0.000000
vn 1.000000 0.000000 0.000000
vn 1.000000 0.000000 0.000000
vn 1.000000 0.000000 0.000000
vn 0.000000 1.000000 0.000004
vn 0.000000 1.000000 0.000004
vn 0.000000 1.000000 0.000004
vn 0.000000 1.000000 0.000004
vn 0.000000 1.000000 -0.000004
vn 0.000000 1.000000 -0.000004
vn 0.000000 1.000000 -0.000004
vn 0.000000 1.000000 -0.000004
vn 0.000000 0.000000 1.000000
vn 0.000000 0.000000 1.000000
vn 0.000000 0.000000 1.000000
vn 0.000000 0.000000 1.000000
vn 0.000000 0.000000 1.000000
vn 1.000000 0.000000 0.000000
vn 1.000000 0.000000 0.000000
vn 1.000000 0.000000 0.000000
vn 1.000000 0.000000 0.000000
vn 0.000000 0.000000 -1.000000
vn 0.000000 0.000000 -1.000000
vn 0.000000 0.000000 -1.000000
vn 0.000000 0.000000 -1.000000
vn 0.000000 0.000000 -1.000000
vn -1.000000 0.000000 0.000000
vn -1.000000 0.000000 0.000000
vn -1.000000 0.000000 0.000000
vn -1.000000 0.000000 0.000000
vn -0.000000 1.000000 0.000000
vn -0.000000 1.000000 0.000000
vn -0.000000 1.000000 0.000000
vn -0.000000 1.000000 0.000000
vn 0.000000 0.000000 -1.000000
vn 0.000000 0.000000 -1.000000
vn 0.000000 0.000000 -1.000000
vn 0.000000 0.000000 -1.000000
vn -1.000000 0.000000 0.000000
vn -1.000000 0.000000 0.000000
vn -1.000000 0.000000 0.000000
vn -1.000000 0.000000 0.000000
vn 0.000000 0.000000 1.000000
vn 0.000000 0.000000 1.000000
vn 0.000000 0.000000 1.000000
vn 0.000000 0.000000 1.000000
vn 1.000000 0.000000 0.000000
vn 1.000000 0.000000 0.000000
vn 1.000000 0.000000 0.000000
vn 1.000000 0.000000 0.000000
vn 0.000000 0.000000 1.000000
vn 0.000000 0.000000 1.000000
vn 0.000000 0.000000 1.000000
vn 0.000000 0.000000 1.000000
vn 0.000000 1.000000 0.000000
vn 0.000000 1.000000 0.000000
vn 0.000000 1.000000 0.000000
vn 0.000000 1.000000 0.000000
vn 0.000000 0.000000 -1.000000
vn 0.000000 0.000000 -1.000000
vn 0.000000 0.000000 -1.000000
vn 0.000000 0.000000 -1.000000
vn 1.000000 0.000000 0.000000
vn 1.000000 0.000000 0.000000
vn 1.000000 0.000000 0.000000
vn 1.000000 0.000000 0.000000
vn -1.000000 0.000000 0.000000
vn -1.000000 0.000000 0.000000
vn -1.000000 0.000000 0.000000
vn -1.000000 0.000000 0.000000
vn 0.000000 1.000000 -0.000002
vn 0.000000 1.000000 -0.000002
vn 0.000000 1.000000 -0.000002
vn 0.000000 1.000000 -0.000002
vn 0.000000 1.000000 0.000001
vn 0.000000 1.000000 0.000001
vn 0.000000 1.000000 0.000001
vn 0.000000 1.000000 0.000001
vn 0.000000 0.000000 -1.000000
vn 0.000000 0.000000 -1.000000
vn 0.000000 0.000000 -1.000000
vn 0.000000 0.000000 -1.000000
vn -1.000000 0.000000 0.000000
vn -1.000000 0.000000 0.000000
vn -1.000000 0.000000 0.000000
vn -1.000000 0.000000 0.000000
vn 0.000000 0.000000 1.000000
vn 0.000000 0.000000 1.000000
vn 0.000000 0.000000 1.000000
vn 0.000000 0.000000 1.000000
vn 1.000000 0.000000 0.000000
vn 1.000000 0.000000 0.000000
vn 1.000000 0.000000 0.000000
vn 1.000000 0.000000 0.000000
vn 0.000000 0.000000 1.000000
vn 0.000000 0.000000 1.000000
vn 0.000000 0.000000 1.000000
vn 0.000000 0.000000 1.000000
vn 0.000000 1.000000 0.000000
vn 0.000000 1.000000 0.000000
vn 0.000000 1.000000 0.000000
vn 0.000000 1.000000 0.000000
vn 0.000000 0.000000 -1.000000
vn 0.000000 0.000000 -1.000000
vn 0.000000 0.000000 -1.000000
vn 0.000000 0.000000 -1.000000
vn 1.000000 0.000000 0.000000
vn 1.000000 0.000000 0.000000
vn 1.000000 0.000000 0.000000
vn 1.000000 0.000000 0.000000
vn -1.000000 0.000000 0.000000
vn -1.000000 0.000000 0.000000
vn -1.000000 0.000000 0.000000
vn -1.000000 0.000000 0.000000
vn 0.000000 0.000000 1.000000
vn 0.000000 0.000000 1.000000
vn 0.000000 0.000000 1.000000
vn 0.000000 0.000000 1.000000
vn 0.000000 1.000000 0.000000
vn 0.000000 1.000000 0.000000
vn 0.000000 1.000000 0.000000
vn 0.000000 1.000000 0.000000
vn 0.000000 0.000000 -1.000000
vn 0.000000 0.000000 -1.000000
vn 0.000000 0.000000 -1.000000
vn 0.000000 0.000000 -1.000000
vn 1.000000 0.000000 0.000000
vn 1.000000 0.000000 0.000000
vn 1.000000 0.000000 0.000000
vn 1.000000 0.000000 0.000000
vn -1.000000 0.000000 0.000000
vn -1.000000 0.000000 0.000000
vn -1.000000 0.000000 0.000000
vn -1.000000 0.000000 0.000000
vn 0.000000 1.000000 0.000057
vn 0.000000 1.000000 0.000057
vn 0.000000 1.000000 0.000057
vn 0.000000 1.000000 0.000057
vn 0.000000 1.000000 -0.000062
vn 0.000000 1.000000 -0.000062
vn 0.000000 1.000000 -0.000062
vn 0.000000 1.000000 -0.000062
vn 0.000000 0.000000 -1.000000
vn 0.000000 0.000000 -1.000000
vn 0.000000 0.000000 -1.000000
vn 0.000000 0.000000 -1.000000
vn -1.000000 0.000000 0.000000
vn -1.000000 0.000000 0.000000
vn -1.000000 0.000000 0.000000
vn -1.000000 0.000000 0.000000
vn 0.000000 0.000000 1.000000
vn 0.000000 0.000000 1.000000
vn 0.000000 0.000000 1.000000
vn 0.000000 0.000000 1.000000
vn 1.000000 0.000000 0.000000
vn 1.000000 0.000000 0.000000
vn 1.000000 0.000000 0.000000
vn 1.000000 0.000000 0.000000
vn 0.000000 0.000000 1.000000
vn 0.000000 0.000000 1.000000
vn 0.000000 0.000000 1.000000
vn 0.000000 0.000000 1.000000
vn 0.000000 1.000000 0.000000
vn 0.000000 1.000000 0.000000
vn 0.000000 1.000000 0.000000
vn 0.000000 1.000000 0.000000
vn 0.000000 0.000000 -1.000000
vn 0.000000 0.000000 -1.000000
vn 0.000000 0.000000 -1.000000
vn 0.000000 0.000000 -1.000000
vn 1.000000 0.000000 0.000000
vn 1.000000 0.000000 0.000000
vn 1.000000 0.000000 0.000000
vn 1.000000 0.000000 0.000000
vn -1.000000 0.000000 0.000000
vn -1.000000 0.000000 0.000000
vn -1.000000 0.000000 0.000000
vn -1.000000 0.000000 0.000000
vn 0.000000 0.000000 1.000000
vn 0.000000 0.000000 1.000000
vn 0.000000 0.000000 1.000000
vn 0.000000 0.000000 1.000000
vn 0.000000 1.000000 0.000000
vn 0.000000 1.000000 0.000000
vn 0.000000 1.000000 0.000000
vn 0.000000 1.000000 0.000000
vn 0.000000 0.000000 -1.000000
vn 0.000000 0.000000 -1.000000
vn 0.000000 0.000000 -1.000000
vn 0.000000 0.000000 -1.000000
vn 1.000000 0.000000 0.000000
vn 1.000000 0.000000 0.000000
vn 1.000000 0.000000 0.000000
vn 1.000000 0.000000 0.000000
vn -1.000000 0.000000 0.000000
vn -1.000000 0.000000 0.000000
vn -1.000000 0.000000 0.000000
vn -1.000000 0.000000 0.000000
s off
g grp_building_geo18 building_grp
usemtl initialShadingGroup
f 19//1 20//2 21//3 22//4
f 1/5/5 4/6/6 3/7/7 2/8/8
f 1/9/9 2/10/10 6/11/11 5/12/12
f 2/13/13 3/14/14 7/15/15 6/16/16
f 3/17/17 4/18/18 8/19/19 7/20/20
f 4/21/21 1/22/22 5/23/23 8/24/24
s 1
f 5//25 6//26 10//27 9//28
f 6//26 7//29 11//30 10//27
f 7//29 8//31 12//32 11//30
f 8//31 5//25 9//28 12//32
s off
f 9/33/33 10/34/34 14/35/35 17/36/36 13/37/37
f 10/38/38 11/39/39 15/40/40 14/41/41
f 11/42/42 12/43/43 16/44/44 18/45/45 15/46/46
f 12/47/47 9/48/48 13/49/49 16/50/50
f 17//51 14//52 15//53 18//54
f 13/54/55 17/53/56 20/52/57 19/51/58
f 17/32/59 18/31/60 21/30/61 20/29/62
f 18/28/63 16/27/64 22/26/65 21/25/66
f 16/4/67 13/3/68 19/2/69 22/1/70
f 23//71 24//72 26//73 25//74
f 35//75 36//76 37//77 38//78
f 27//79 28//80 30//81 29//82
f 24//83 30//84 28//85 26//86
f 29//87 23//88 25//89 27//90
s 2
f 25//91 26//92 32//93 31//94
f 26//92 28//95 33//96 32//93
f 28//95 27//97 34//98 33//96
f 27//97 25//91 31//94 34//98
s off
f 31//99 32//100 36//101 35//102
f 32//103 33//104 37//105 36//106
f 33//107 34//108 38//109 37//110
f 34//111 31//112 35//113 38//114
f 39//115 40//116 42//117 41//118
f 41//119 42//120 44//121 43//122
f 43//123 44//124 46//125 45//126
f 40//127 46//128 44//129 42//130
f 45//131 39//132 41//133 43//134
f 47//135 48//136 50//137 49//138
f 59//139 60//140 61//141 62//142
f 51//143 52//144 54//145 53//146
f 48//147 54//148 52//149 50//150
f 53//151 47//152 49//153 51//154
s 3
f 49//155 50//156 56//157 55//158
f 50//156 52//159 57//160 56//157
f 52//159 51//161 58//162 57//160
f 51//161 49//155 55//158 58//162
s off
f 55//163 56//164 60//165 59//166
f 56//167 57//168 61//169 60//170
f 57//171 58//172 62//173 61//174
f 58//175 55//176 59//177 62//178
f 63//179 64//180 65//181 66//182
f 67//183 68//184 69//185 70//186
f 71//187 72//188 73//189 74//190
f 64//191 73//192 72//193 65//194
f 74//195 63//196 66//197 71//198
f 75//199 76//200 77//201 78//202
f 79//203 80//204 81//205 82//206
f 83//207 84//208 85//209 86//210
f 76//211 85//212 84//213 77//214
f 86//215 75//216 78//217 83//218
