# 3ds Max Wavefront OBJ Exporter v0.97b - (c)2007 guruware
# File Created: 18.07.2012 12:08:12

mtllib WoodCrate_OBJ.mtl

#
# object Box01
#

v  35.0869 3.6040 -35.4882
v  35.0869 3.6040 34.2885
v  -34.6898 3.6040 34.2885
v  -34.6898 3.6040 -35.4882
v  35.0869 87.9741 -35.4882
v  -34.6898 87.9741 -35.4882
v  -34.6898 87.9741 34.2885
v  35.0869 87.9741 34.2885
v  35.0869 80.6774 41.5852
v  -34.6898 80.6774 41.5852
v  -34.6898 10.9007 41.5852
v  35.0869 10.9007 41.5852
v  42.3836 80.6774 -35.4882
v  42.3836 80.6774 34.2885
v  42.3836 10.9007 34.2885
v  42.3836 10.9007 -35.4882
v  -34.6898 80.6774 -42.7849
v  35.0869 80.6774 -42.7849
v  35.0869 10.9007 -42.7849
v  -34.6898 10.9007 -42.7849
v  -41.9865 80.6774 34.2885
v  -41.9865 80.6774 -35.4882
v  -41.9865 10.9007 -35.4882
v  -41.9865 10.9007 34.2885
v  -34.6898 0.0000 -35.4882
v  -34.6898 0.0000 34.2885
v  -45.5905 0.0000 45.1892
v  -45.5905 0.0000 -46.3889
v  35.0869 0.0000 -35.4882
v  45.9876 0.0000 -46.3889
v  35.0869 0.0000 34.2885
v  45.9876 0.0000 45.1892
v  35.0869 91.5781 34.2885
v  -34.6898 91.5781 34.2885
v  -45.5905 91.5781 45.1892
v  45.9876 91.5781 45.1892
v  35.0869 91.5781 -35.4882
v  45.9876 91.5781 -46.3889
v  -34.6898 91.5781 -35.4882
v  -45.5905 91.5781 -46.3889
v  35.0869 10.9007 45.1892
v  -34.6898 10.9007 45.1892
v  35.0869 80.6774 45.1892
v  -34.6898 80.6774 45.1892
v  45.9876 10.9007 -35.4882
v  45.9876 10.9007 34.2885
v  45.9876 80.6774 -35.4882
v  45.9876 80.6774 34.2885
v  -34.6898 10.9007 -46.3889
v  35.0869 10.9007 -46.3889
v  -34.6898 80.6774 -46.3889
v  35.0869 80.6774 -46.3889
v  -45.5905 10.9007 34.2885
v  -45.5905 10.9007 -35.4882
v  -45.5905 80.6774 34.2885
v  -45.5905 80.6774 -35.4882
v  -40.5828 0.6063 31.4405
v  32.2660 0.6063 -40.3074
v  41.3181 0.6063 -31.1164
v  -31.5307 0.6063 40.6314
v  -31.5307 4.4337 40.6314
v  41.3181 4.4337 -31.1164
v  32.2660 4.4337 -40.3074
v  -40.5828 4.4337 31.4405
v  -44.6778 85.6162 -31.1164
v  -44.6778 76.5641 -40.3074
v  -44.6778 3.7154 31.4405
v  -44.6778 12.7674 40.6314
v  -40.8504 12.7674 40.6314
v  -40.8504 85.6162 -31.1164
v  -40.8504 76.5641 -40.3074
v  -40.8504 3.7154 31.4405
v  -30.5252 85.6162 44.1413
v  -39.7162 76.5641 44.1413
v  32.0316 3.7154 44.1412
v  41.2226 12.7674 44.1412
v  41.2226 12.7674 40.3139
v  -30.5252 85.6162 40.3139
v  -39.7162 76.5641 40.3139
v  32.0316 3.7154 40.3139
v  30.3392 85.9094 -45.3285
v  39.5302 76.8573 -45.3285
v  -32.2177 4.0085 -45.3285
v  -41.4086 13.0606 -45.3285
v  -41.4086 13.0606 -41.5011
v  30.3392 85.9094 -41.5011
v  39.5302 76.8573 -41.5011
v  -32.2177 4.0085 -41.5011
v  44.4917 85.9094 29.9291
v  44.4917 76.8573 39.1201
v  44.4917 4.0085 -32.6277
v  44.4917 13.0606 -41.8187
v  40.6644 13.0606 -41.8187
v  40.6644 85.9094 29.9291
v  40.6644 76.8573 39.1201
v  40.6644 4.0085 -32.6277
v  41.3181 90.1487 31.4405
v  -31.5307 90.1487 -40.3073
v  -40.5828 90.1487 -31.1164
v  32.2660 90.1487 40.6314
v  32.2660 86.3213 40.6314
v  -40.5828 86.3213 -31.1164
v  -31.5307 86.3213 -40.3073
v  41.3181 86.3213 31.4405
# 104 vertices

vn 0.0000 -1.0000 -0.0000
vn 0.0000 1.0000 -0.0000
vn 0.0000 0.0000 1.0000
vn 1.0000 0.0000 -0.0000
vn 0.0000 0.0000 -1.0000
vn -1.0000 0.0000 -0.0000
vn -0.0000 -1.0000 0.0000
vn 0.7017 0.0000 0.7125
vn -0.7017 0.0000 -0.7125
vn -1.0000 -0.0000 0.0000
vn 0.0000 0.7017 0.7125
vn 0.0000 -0.7017 -0.7125
vn 0.0000 -0.0000 1.0000
vn 0.7125 0.7017 -0.0000
vn -0.7125 -0.7017 -0.0000
vn -0.0000 0.0000 -1.0000
vn -0.7125 0.7017 -0.0000
vn 0.7125 -0.7017 -0.0000
vn 1.0000 -0.0000 -0.0000
vn 0.0000 0.7017 -0.7125
vn 0.0000 -0.7017 0.7125
vn -0.7017 0.0000 0.7125
vn 0.7017 0.0000 -0.7125
# 23 vertex normals

vt 0.1194 0.8806 0.0398
vt 0.1194 0.1194 0.0398
vt 0.8806 0.1194 0.0398
vt 0.8806 0.8806 0.0398
vt 0.8806 0.8806 0.9602
vt 0.1194 0.8806 0.9602
vt 0.1194 0.1194 0.9602
vt 0.8806 0.1194 0.9602
vt 0.8806 0.8806 0.0005
vt 0.8806 0.1194 0.0005
vt 0.9995 0.0005 0.0005
vt 0.9995 0.9995 0.0005
vt 0.1194 0.8806 0.0005
vt 0.0005 0.9995 0.0005
vt 0.1194 0.1194 0.0005
vt 0.0005 0.0005 0.0005
vt 0.8806 0.1194 0.9995
vt 0.1194 0.1194 0.9995
vt 0.0005 0.0005 0.9995
vt 0.9995 0.0005 0.9995
vt 0.8806 0.8806 0.9995
vt 0.9995 0.9995 0.9995
vt 0.1194 0.8806 0.9995
vt 0.0005 0.9995 0.9995
vt 0.8806 0.0398 0.1194
vt 0.1194 0.0398 0.1194
vt 0.1194 0.0005 0.1194
vt 0.8806 0.0005 0.1194
vt 0.8806 0.0398 0.8806
vt 0.1194 0.0398 0.8806
vt 0.1194 0.0005 0.8806
vt 0.8806 0.0005 0.8806
vt 0.1194 0.9602 0.1194
vt 0.8806 0.9602 0.1194
vt 0.8806 0.9995 0.1194
vt 0.1194 0.9995 0.1194
vt 0.1194 0.9602 0.8806
vt 0.8806 0.9602 0.8806
vt 0.8806 0.9995 0.8806
vt 0.1194 0.9995 0.8806
vt 0.9602 0.8806 0.8806
vt 0.9602 0.1194 0.8806
vt 0.9995 0.1194 0.8806
vt 0.9995 0.8806 0.8806
vt 0.0398 0.1194 0.1194
vt 0.0398 0.8806 0.1194
vt 0.0005 0.8806 0.1194
vt 0.0005 0.1194 0.1194
vt 0.9602 0.8806 0.1194
vt 0.9602 0.1194 0.1194
vt 0.9995 0.1194 0.1194
vt 0.9995 0.8806 0.1194
vt 0.0398 0.1194 0.8806
vt 0.0398 0.8806 0.8806
vt 0.0005 0.8806 0.8806
vt 0.0005 0.1194 0.8806
vt 0.7829 0.1235 0.0000
vt 0.1260 0.7793 0.0000
vt 0.2186 0.8731 0.0000
vt 0.8770 0.2192 0.0000
vt 0.0508 0.1105 0.0000
vt 0.0950 0.1105 0.0000
vt 0.0950 1.0000 0.0000
vt 0.0508 1.0000 0.0000
vt 0.0508 0.8895 0.0000
vt 0.0950 0.8895 0.0000
vt 0.0950 -0.0000 0.0000
vt 0.0508 -0.0000 0.0000
# 68 texture coords

g Box01
usemtl 01___Default
s 2
f 1/1/1 2/2/1 3/3/1 4/4/1 
s 4
f 5/5/2 6/6/2 7/7/2 8/8/2 
s 8
f 9/4/3 10/1/3 11/2/3 12/3/3 
s 16
f 13/5/4 14/6/4 15/7/4 16/8/4 
s 32
f 17/5/5 18/6/5 19/7/5 20/8/5 
s 64
f 21/4/6 22/1/6 23/2/6 24/3/6 
s off
f 25/9/1 26/10/1 27/11/1 28/12/1 
f 29/13/1 25/9/1 28/12/1 30/14/1 
f 31/15/1 29/13/1 30/14/1 32/16/1 
f 26/10/1 31/15/1 32/16/1 27/11/1 
f 33/17/2 34/18/2 35/19/2 36/20/2 
f 37/21/2 33/17/2 36/20/2 38/22/2 
f 39/23/2 37/21/2 38/22/2 40/24/2 
f 34/18/2 39/23/2 40/24/2 35/19/2 
f 41/10/3 42/15/3 27/16/3 32/11/3 
f 43/9/3 41/10/3 32/11/3 36/12/3 
f 44/13/3 43/9/3 36/12/3 35/14/3 
f 42/15/3 44/13/3 35/14/3 27/16/3 
f 45/17/4 46/18/4 32/19/4 30/20/4 
f 47/21/4 45/17/4 30/20/4 38/22/4 
f 48/23/4 47/21/4 38/22/4 36/24/4 
f 46/18/4 48/23/4 36/24/4 32/19/4 
f 49/17/5 50/18/5 30/19/5 28/20/5 
f 51/21/5 49/17/5 28/20/5 40/22/5 
f 52/23/5 51/21/5 40/22/5 38/24/5 
f 50/18/5 52/23/5 38/24/5 30/19/5 
f 53/10/6 54/15/6 28/16/6 27/11/6 
f 55/9/6 53/10/6 27/11/6 35/12/6 
f 56/13/6 55/9/6 35/12/6 40/14/6 
f 54/15/6 56/13/6 40/14/6 28/16/6 
f 4/25/4 3/26/4 26/27/4 25/28/4 
f 1/29/3 4/30/3 25/31/3 29/32/3 
f 2/29/6 1/30/6 29/31/6 31/32/6 
f 3/25/5 2/26/5 31/27/5 26/28/5 
f 8/33/5 7/34/5 34/35/5 33/36/5 
f 5/37/6 8/38/6 33/39/6 37/40/6 
f 6/37/3 5/38/3 37/39/3 39/40/3 
f 7/33/4 6/34/4 39/35/4 34/36/4 
f 12/25/2 11/26/2 42/27/2 41/28/2 
f 9/41/6 12/42/6 41/43/6 43/44/6 
f 10/29/1 9/30/1 43/31/1 44/32/1 
f 11/45/4 10/46/4 44/47/4 42/48/4 
f 16/49/2 15/50/2 46/51/2 45/52/2 
f 13/41/3 16/42/3 45/43/3 47/44/3 
f 14/53/1 13/54/1 47/55/1 48/56/1 
f 15/45/5 14/46/5 48/47/5 46/48/5 
f 20/33/2 19/34/2 50/35/2 49/36/2 
f 17/49/4 20/50/4 49/51/4 51/52/4 
f 18/37/1 17/38/1 51/39/1 52/40/1 
f 19/53/6 18/54/6 52/55/6 50/56/6 
f 24/45/2 23/46/2 54/47/2 53/48/2 
f 21/49/5 24/50/5 53/51/5 55/52/5 
f 22/41/1 21/42/1 55/43/1 56/44/1 
f 23/53/3 22/54/3 56/55/3 54/56/3 
s 4
f 57/57/7 58/58/7 59/59/7 60/60/7 
s 16
f 61/61/8 60/62/8 59/63/8 62/64/8 
s 64
f 63/65/9 58/66/9 57/67/9 64/68/9 
s 4
f 65/59/10 66/58/10 67/57/10 68/60/10 
s 16
f 65/63/11 68/62/11 69/61/11 70/64/11 
s 64
f 67/67/12 66/66/12 71/65/12 72/68/12 
s 4
f 73/59/13 74/58/13 75/57/13 76/60/13 
s 16
f 73/63/14 76/62/14 77/61/14 78/64/14 
s 64
f 75/67/15 74/66/15 79/65/15 80/68/15 
s 4
f 81/59/16 82/58/16 83/57/16 84/60/16 
s 16
f 81/63/17 84/62/17 85/61/17 86/64/17 
s 64
f 83/67/18 82/66/18 87/65/18 88/68/18 
s 4
f 89/59/19 90/58/19 91/57/19 92/60/19 
s 16
f 89/63/20 92/62/20 93/61/20 94/64/20 
s 64
f 91/67/21 90/66/21 95/65/21 96/68/21 
s 4
f 97/57/2 98/58/2 99/59/2 100/60/2 
s 16
f 101/61/22 100/62/22 99/63/22 102/64/22 
s 64
f 103/65/23 98/66/23 97/67/23 104/68/23 
# 72 polygons

